<svg version="1.0" xmlns="http://www.w3.org/2000/svg" width="933.333" height="933.333" viewBox="0 0 700 700"><path d="M333.7 7.6c-.1.1-4.5.5-9.7.9-9.6.7-11.1.8-18.7 1.9-2.4.3-6.2.9-8.5 1.2-2.4.3-10.6 1.9-18.3 3.4-33 6.9-67.9 20.1-97 36.7-7.1 4-25.3 15.5-28 17.5-.5.5-5.3 4-10.5 7.9-29.4 22.1-58 52.5-78.7 83.9-16.7 25.3-29 50.4-39 79.5-3.6 10.7-10.8 37.4-11.7 44-.4 2.3-.8 5-1 6-.3 1.8-1.2 7.4-2.1 13.5-.5 3-1.2 9.7-2.1 20-1.3 14.6-.7 52.2 1.1 64 .2 1.4.6 4.7 1 7.5.5 4.4 1.2 9.2 3 19 1.1 6.3 1.5 8.4 4 18.1 1.5 5.4 2.8 10.8 3 11.8 1.1 4.7 8.2 25.1 12.6 35.8 5.6 13.5 15.7 33.9 20.5 41.6 1.9 2.9 3.4 5.5 3.4 5.8 0 .3 3.7 6 8.2 12.7 33.5 49.5 77.9 88.8 130.4 115.5 24.8 12.6 60.5 25.3 80.4 28.7 1.9.3 5.1 1 7 1.5 1.9.5 5.5 1.2 8 1.5 2.4.4 4.7.8 5 1 .3.2 3.5.6 7.2.9 3.7.4 7.6.9 8.6 1.1 12.7 2.4 56.6 2.4 76.7 0 4.7-.6 12.8-1.7 14.5-2 .8-.1 3.5-.6 6-1 5.1-.8 4.8-.8 15-3 53.6-11.5 107.8-38.7 150-75.3 11.1-9.6 29.3-28.2 38-38.7 4.5-5.5 9.2-11.1 10.3-12.5 3.2-3.8 20-28.7 23.6-35 20.3-35.5 34.6-74.5 41.5-113.5.3-1.7.8-4.1 1-5.5.6-3.2 1.7-11.3 2.1-16.5.2-2.2.7-7.6 1.1-12 1.3-15.3.7-53.2-1.1-62.5-.2-.8-.6-4.6-.9-8.4-.4-3.8-.9-7.2-1.1-7.6-.2-.3-.6-2.6-1-5-2.8-20.4-10.9-48.6-20.8-72.6-4.7-11.4-15.7-33.7-20.2-40.9-1.4-2.2-2.8-4.7-3.2-5.5-2.9-6.5-22.4-33.3-33.7-46.5-7.3-8.5-29-30.2-36.9-36.9-28.1-23.7-59.6-43-92.5-56.5-15.1-6.2-37.4-13.4-49.7-16.2-2.7-.6-5.9-1.3-7-1.5-6.7-1.6-22-4.3-26.6-4.8-3-.4-7-.8-8.9-1.1-10.6-1.3-53.3-2.8-54.3-1.9z"/></svg>