<svg version="1.1" id="Layer_1" xmlns="http://www.w3.org/2000/svg" x="0" y="0" viewBox="0 0 120 120" xml:space="preserve"><path d="M28.48 62.55c0-14.73 11.95-26.68 26.68-26.68-14.73 0-26.68-11.94-26.68-26.68 0 14.73-11.95 26.68-26.68 26.68 14.73.01 26.68 11.95 26.68 26.68z" fill="#003e78"/><path d="M64.18 32.87c0-8.01 6.5-14.51 14.51-14.51-8.01 0-14.51-6.5-14.51-14.51 0 8.01-6.5 14.51-14.51 14.51 8.01 0 14.51 6.5 14.51 14.51z" fill="#1e7ae1"/><path d="M90.6 19.67c0-5.17 4.19-9.37 9.37-9.37-5.17 0-9.37-4.19-9.37-9.37 0 5.17-4.19 9.37-9.37 9.37 5.17.01 9.37 4.2 9.37 9.37z" fill="#003e78"/><path d="M77.94 72.3L64 86.41 50.05 72.3h10.5V37.35h6.89V72.3h10.5zm-42 21h56.11v7.06H35.94z" fill="#00397b"/><g fill="#1e7ae1"><path d="M52.17 43.89c-5.81.87-10.81 4.25-13.85 8.99h13.85v-8.99z"/><path d="M105.94 43.55H75.82v9.34h29.04v56.84H21.49V60.16c-.93-5.24-3.9-9.77-8.05-12.76a8.182 8.182 0 00-1.28 4.4v58.98c0 4.56 3.71 8.26 8.26 8.26h85.52c4.56 0 8.26-3.71 8.26-8.26V51.81c0-4.56-3.71-8.26-8.26-8.26z"/></g></svg>