<svg version="1.1" id="Layer_1" xmlns="http://www.w3.org/2000/svg" x="0" y="0" viewBox="0 0 120 120" xml:space="preserve"><path d="M102.2 31.8c-4.6-3.9-9.6-6.4-10.6-6.9-.1 0-.1-.1-.1-.2v-3c.5-1 .7-1.9.8-2.9.4.2 1.1.1 1.8-2.5.6-2.2.2-2.9-.2-3.1h-.1c.1-.4.1-.5.1-.5 2-8.4-2.7-8.1-2.7-8.1-.4-1.7-2.8-3.5-5.1-3-2.2.5-6.7-.1-6.7-.1-.1 1 .7 1.7.7 1.7-4.7 2.9-2.8 9.5-2.8 9.5-.7-.1-1.6.4-.7 3.1.6 2 1.1 2.6 1.6 2.6.1 1.2.6 2.4 1.2 3.6v2.5c0 .1-.1.2-.1.2-1 .5-6 3-10.6 6.9-.8.7-1.3 1.7-1.3 2.8v24.3c0 2.9 1 5.5 2.8 7.8l3.8 4.6 3.5 44.6c.1 1.6 1.4 2.8 3 2.8l11.6-.2c1.2 0 3-.1 3.1-2.7v-4c-2.1-2.4-4-4.5-5.6-6.2l-.2-.2c-.9-1.1-1.3-2.3-1.3-3.7v-3.2c0-1 .3-2 .8-2.9-.5-.9-.8-1.9-.8-2.9V90c0-.8.2-1.5.5-2.2-.4-.8-.6-1.5-.6-2.3v-3.3c0-1.5.6-2.9 1.6-4s2.5-1.6 4-1.6h2.9c.2-3.4.3-5.6.3-5.6l3.8-4.6c1.8-2.2 2.9-4.9 2.9-7.8v-24c0-1.1-.4-2.2-1.3-2.8zM85.5 51.9l-2.9-3.1 1.8-15.6c-3.6-5.2.4-5.4 1.1-5.4s4.7.2 1 5.4l1.8 15.6-2.8 3.1z" fill="#1e7ae1"/><path d="M115.2 92.5c0 .2-.1.4-.2.6s-.3.2-.6.2h-4.2c-.4 2.4-1.5 4.3-3.2 5.9-1.8 1.5-4.1 2.4-6.9 2.8 2.8 2.9 6.6 7.4 11.5 13.4.2.3.3.5.1.8-.2.3-.4.5-.7.5h-4.8c-.3 0-.5-.1-.6-.3-5.1-6.1-9.2-10.9-12.5-14.2-.2-.2-.2-.4-.2-.6v-3.2c0-.2.1-.4.2-.5.2-.2.4-.3.6-.3h2.8c2.2 0 4-.3 5.3-1.1 1.3-.7 2.2-1.8 2.5-3.2H93.6c-.2 0-.4-.1-.6-.2s-.2-.3-.2-.6V90c0-.2.1-.4.2-.6.2-.2.3-.2.6-.2h10.3c-.9-1.9-3.2-2.8-6.7-2.8h-3.6c-.2 0-.4-.1-.6-.3-.2-.2-.2-.3-.2-.6v-3.3c0-.2.1-.4.2-.6s.3-.2.6-.2h20.8c.2 0 .4.1.6.2s.2.3.2.6v2.6c0 .2-.1.4-.2.6s-.3.2-.6.2h-5.8c.8 1 1.3 2.2 1.6 3.6h4.3c.2 0 .4.1.6.2.1.2.2.4.2.6l-.1 2.5z"/><path d="M115.2 92.5c0 .2-.1.4-.2.6s-.3.2-.6.2h-4.2c-.4 2.4-1.5 4.3-3.2 5.9-1.8 1.5-4.1 2.4-6.9 2.8 2.8 2.9 6.6 7.4 11.5 13.4.2.3.3.5.1.8-.2.3-.4.5-.7.5h-4.8c-.3 0-.5-.1-.6-.3-5.1-6.1-9.2-10.9-12.5-14.2-.2-.2-.2-.4-.2-.6v-3.2c0-.2.1-.4.2-.5.2-.2.4-.3.6-.3h2.8c2.2 0 4-.3 5.3-1.1 1.3-.7 2.2-1.8 2.5-3.2H93.6c-.2 0-.4-.1-.6-.2s-.2-.3-.2-.6V90c0-.2.1-.4.2-.6.2-.2.3-.2.6-.2h10.3c-.9-1.9-3.2-2.8-6.7-2.8h-3.6c-.2 0-.4-.1-.6-.3-.2-.2-.2-.3-.2-.6v-3.3c0-.2.1-.4.2-.6s.3-.2.6-.2h20.8c.2 0 .4.1.6.2s.2.3.2.6v2.6c0 .2-.1.4-.2.6s-.3.2-.6.2h-5.8c.8 1 1.3 2.2 1.6 3.6h4.3c.2 0 .4.1.6.2.1.2.2.4.2.6l-.1 2.5z" fill="#00397b"/></svg>