<svg version="1.1" id="Layer_1" xmlns="http://www.w3.org/2000/svg" x="0" y="0" viewBox="0 0 120 120" xml:space="preserve"><g fill-rule="evenodd" clip-rule="evenodd"><path d="M35 61.1c-14.9 0-27-12.1-27-27s12.1-27 27-27 27 12.1 27 27-12.1 27-27 27m10.5-32.7c0 .2-.1.4-.2.5-.1.1-.3.2-.5.2h-3.9c-.4 2.2-1.4 4.1-3 5.5-1.6 1.4-3.8 2.2-6.5 2.6 2.6 2.8 6.2 6.9 10.8 12.5.2.2.2.5.1.8-.1.3-.4.5-.7.5H37c-.2 0-.4-.1-.6-.3-4.8-5.7-8.7-10.2-11.7-13.3-.1-.2-.2-.3-.2-.5v-3c0-.2.1-.4.2-.5.2-.2.3-.2.5-.2h2.6c2.1 0 3.7-.3 5-1 1.2-.7 2.1-1.7 2.4-3h-10c-.2 0-.4-.1-.5-.2s-.2-.3-.2-.5V26c0-.2.1-.4.2-.6.1-.1.3-.2.5-.2h9.6c-.9-1.7-3-2.6-6.3-2.6h-3.4c-.2 0-.4-.1-.5-.2-.1-.1-.2-.3-.2-.5v-3.1c0-.2.1-.4.2-.5s.4-.3.7-.3h19.5c.2 0 .4.1.5.2s.2.3.2.5v2.4c0 .2-.1.4-.2.5-.1.1-.3.2-.5.2h-5.4c.7 1 1.2 2.1 1.5 3.4h4c.2 0 .4.1.5.2.1.2.2.4.2.6l-.1 2.4z" fill="#1e7ae1"/><path d="M116.1 46.7L96 79.3c-.4.7-1.1 1.2-1.8 1.4v30.9c0 .7-.5 1.2-1.2 1.2s-1.2-.5-1.2-1.2V80.8c-.2-.1-.4-.1-.6-.2L75 72v39.7c0 .7-.5 1.2-1.2 1.2s-1.2-.5-1.2-1.2V72.2L55.2 91.1v20.6c0 .7-.5 1.2-1.2 1.2s-1.2-.5-1.2-1.2V92.6c-.7.1-1.5 0-2.2-.3L33.8 84v27.7c0 .7-.5 1.2-1.2 1.2s-1.2-.5-1.2-1.2v-28L13.3 98.8c-.7.6-1.5.8-2.3.8-1 0-2.1-.4-2.8-1.3-1.3-1.5-1.1-3.8.5-5.1L29.3 76c1.1-.9 2.6-1.1 3.9-.5l18.2 9 18.8-20.3c1.1-1.2 2.9-1.5 4.3-.7l17.1 9.1L110 42.9c1.1-1.7 3.3-2.2 5-1.2 1.6 1.1 2.2 3.3 1.1 5" fill="#00397b"/></g></svg>