<svg version="1.1" id="Layer_1" xmlns="http://www.w3.org/2000/svg" x="0" y="0" viewBox="0 0 120 120" xml:space="preserve"><style>.st0{fill:#1e7ae1}</style><path class="st0" d="M84.3 91.7c-.2-1.5.6-11.1-.5-14.8l-5.2 2.3c.7 2.6-.1 11.6.1 12.9l-7.3.4 10 12.6 9.3-13.9-6.4.5zM66.1 56.8c1.5.9 2.9 2.5 4 3.8l5.3-2.3C73.8 56 71.5 53.5 69 52c-5.2-3.2-11.4-3.5-18.4-.8-11.4 4.4-12.5 13.9-11.5 22.9l5.4-2.4c-.6-7.4 1-12.4 8.1-15.2 5.4-2 9.8-2 13.5.3zM8.8 74.9l-5.3 1.8c.1.2 1.7 5.2 4.5 11l5.2-2.3c-2.6-5.3-4.3-10.5-4.4-10.5zm32 36.7c-2.9 1.3-5.7 1.3-8.6 0-3-1.4-6.2-4.1-9.2-8.1l-5.3 2.3c3.9 5.4 7.9 8.9 12.1 10.8 4.4 2 8.8 1.8 13.1-.1 10.2-4.5 8.9-15 6.9-24.8L44.5 94c1.9 9.3 2.1 15.1-3.7 17.6z"/><path fill="#00397b" d="M119.1 50.3l-30.8-9.9 5.8 13.1L.9 94.4l5.6 12.8 93.2-40.8 5.8 13.2z"/><path transform="rotate(-23.673 86.849 47.023)" class="st0" d="M86 41.4h1.6v11.3H86z"/><path transform="rotate(-23.638 99.592 76.134)" class="st0" d="M98.8 70.5h1.6v11.3h-1.6z"/><path transform="rotate(-23.627 82.911 48.753)" class="st0" d="M82.6 43.1h.5v11.3h-.5z"/><path transform="rotate(-23.573 95.654 77.869)" class="st0" d="M95.4 72.2h.5v11.3h-.5z"/></svg>