<svg version="1.1" id="Layer_1" xmlns="http://www.w3.org/2000/svg" x="0" y="0" viewBox="0 0 200 200" xml:space="preserve"><style>.st0{fill:#00a99d}</style><path class="st0" d="M193.1 5.5c-1.2-.7-2.6-.6-3.7 0l-68 40.2c-1.8 1-2.3 3.3-1.3 5.1 1 1.8 3.3 2.3 5.1 1.3L174 23.3l-90.9 94.3-45.2-13.8 59-34.9c1.8-1 2.3-3.3 1.3-5.1-1-1.8-3.3-2.3-5.1-1.3l-66.2 39.2c-1.3.7-2 2.2-1.8 3.6s1.2 2.7 2.6 3.1l54 16.5 23.8 43.3.1.1c.4.7 1 1.2 1.7 1.5.5.2 1 .3 1.4.3 1 0 1.9-.4 2.6-1.1l27.4-26.8 51.5 15.8c.4.1.7.2 1.1.2.8 0 1.6-.2 2.2-.7.9-.7 1.5-1.8 1.5-3V8.7c0-1.3-.7-2.6-1.9-3.2zm-87.4 121.7c-.4.6-.7 1.4-.7 2.1V152l-16.3-29.6 72-74.7-55 79.5zm6.7 30.4v-23.3l18.2 5.6-18.2 17.7zm75.2-8.1l-72.9-22.3L187.6 22v127.5z"/><path class="st0" d="M66 134c-1.4-1.4-3.8-1.4-5.2 0l-34.6 34.6c-1.4 1.4-1.4 3.8 0 5.2.7.7 1.7 1.1 2.6 1.1s1.9-.4 2.6-1.1L66 139.2c1.5-1.4 1.5-3.8 0-5.2zm-46.1 46.1c-1.4-1.4-3.8-1.4-5.2 0l-8.5 8.5c-1.4 1.4-1.4 3.8 0 5.2.7.7 1.7 1.1 2.6 1.1s1.9-.4 2.6-1.1l8.5-8.5c1.4-1.4 1.4-3.7 0-5.2zm38 8.3c-.7-.7-1.6-1.1-2.6-1.1s-1.9.4-2.6 1.1-1.1 1.6-1.1 2.6.4 1.9 1.1 2.6c.7.7 1.6 1.1 2.6 1.1s1.9-.4 2.6-1.1c.7-.7 1.1-1.6 1.1-2.6 0-.9-.4-1.9-1.1-2.6zm27.6-27.6c-1.4-1.4-3.8-1.4-5.2 0L62 179.1c-1.4 1.4-1.4 3.8 0 5.2.7.7 1.7 1.1 2.6 1.1s1.9-.4 2.6-1.1L85.5 166c1.5-1.4 1.5-3.7 0-5.2zm63.4-1.4c-1.4-1.4-3.8-1.4-5.2 0l-18.4 18.4c-1.4 1.4-1.4 3.8 0 5.2.7.7 1.7 1.1 2.6 1.1.9 0 1.9-.4 2.6-1.1l18.4-18.4c1.4-1.4 1.4-3.7 0-5.2zM110.2 55.6c-.7-.7-1.6-1.1-2.6-1.1s-1.9.4-2.6 1.1c-.7.7-1.1 1.6-1.1 2.6s.4 1.9 1.1 2.6c.7.7 1.6 1.1 2.6 1.1s1.9-.4 2.6-1.1c.7-.7 1.1-1.6 1.1-2.6s-.4-1.9-1.1-2.6z"/></svg>