<svg version="1.1" id="Layer_1" xmlns="http://www.w3.org/2000/svg" x="0" y="0" viewBox="0 0 120 120" xml:space="preserve"><style>.st0{fill:#1e7ae1}.st1{fill:#00397b}</style><path class="st0" d="M38.6 80.7c-9.5 0-17.2-7.7-17.2-17.2s7.7-17.2 17.2-17.2S55.8 54 55.8 63.5h-3.2c0-7.7-6.2-13.9-13.9-13.9s-13.9 6.2-13.9 13.9S31 77.4 38.7 77.4l-.1 3.3z"/><path class="st0" d="M60.1 110.1H57V76.8h-8.2v33.3h-3.2V73.6h14.5z"/><path class="st1" d="M78.8 110.1h-3.2V60h-8.1v50.1h-3.3V56.8h14.6z"/><path class="st0" d="M97.3 110.1h-3.1V41.5H86v68.6h-3.1V38.4h14.4z"/><path class="st1" d="M116 110.1h-3.2V27.4h-8.1v82.7h-3.3V24.2H116z"/><path class="st0" d="M45.9 114.6h69.7v3.2H45.9z"/><path class="st1" d="M38.6 88.7H4V38.4h69.1V53H70V41.5H7.2v43.9h31.4z"/><path class="st1" d="M44.9 61c0 .1 0 .2-.1.3s-.2.1-.3.1h-1.9c-.2 1.1-.7 2-1.5 2.7-.8.7-1.8 1.1-3.2 1.3 1.3 1.3 3 3.4 5.2 6.1.1.1.1.2 0 .4.2 0 .1.1-.1.1h-2.2c-.1 0-.2 0-.3-.1-2.3-2.8-4.2-5-5.7-6.5-.1-.1-.1-.2-.1-.3v-1.5c0-.1 0-.2.1-.2.1-.1.2-.1.3-.1h1.3c1 0 1.8-.2 2.4-.5.6-.3 1-.8 1.2-1.4h-4.9c-.1 0-.2 0-.3-.1s-.1-.2-.1-.3v-1.2c0-.1 0-.2.1-.3.1-.1.2-.1.3-.1h4.7c-.4-.8-1.4-1.3-3-1.3h-1.7c-.1 0-.2 0-.3-.1-.1-.1-.1-.2-.1-.3v-1.5c0-.1 0-.2.1-.3s.2-.1.3-.1h9.5c.1 0 .2 0 .3.1s.1.2.1.3v1.2c0 .1 0 .2-.1.3s-.2.1-.3.1h-2.7c.3.5.6 1 .7 1.6h2c.1 0 .2 0 .3.1.1.1.1.2.1.3l-.1 1.2z"/></svg>