<svg version="1.1" id="Group_4872" xmlns="http://www.w3.org/2000/svg" x="0" y="0" viewBox="0 0 40.7 30.7" xml:space="preserve"><path d="M38.9 4.1L37.1 4V2c0-1-.8-1.8-1.8-1.8H2C1 .1.1 1 .1 2v22.9c0 1 .8 1.8 1.8 1.8h.2c0 .4.2.7.4 1 .3.4.8.6 1.3.6L37 30.6h.1c.4 0 .9-.2 1.2-.4.4-.3.6-.8.6-1.3L40.6 6c0-1-.7-1.9-1.7-1.9zm-3.2 6.7H1.5V6.1h34.3v4.7zM2 1.5h33.3c.3 0 .5.2.5.5v2.8H1.5V2c0-.3.2-.5.5-.5zm-.5 23.4V12.2h34.3v12.7c0 .3-.2.5-.5.5H2c-.3 0-.5-.2-.5-.5zm36.2 3.9c0 .1-.1.3-.2.3-.1.1-.2.1-.4.1L3.9 27c-.1 0-.3-.1-.3-.2 0 0 0-.1-.1-.1h31.7c1 0 1.8-.8 1.8-1.8V5.3l1.7.1c.3 0 .5.3.5.5l-1.5 22.9z"/><path d="M21.9 23.2h12V15h-12v8.2zm1.3-6.8h9.4v5.5h-9.4v-5.5zM3.8 14.6h4.3v1.3H3.8zm6.3 0h8.2v1.3h-8.2zm-5.9 3.2h9.1v1.3H4.2zm11.2 0h2.8v1.3h-2.8z"/></svg>