<svg id="Group_4872" data-name="Group 4872" xmlns="http://www.w3.org/2000/svg" width="43.479" height="22.759"><path id="Path_15057" data-name="Path 15057" d="M41.993 122H4.034a1.493 1.493 0 00-1.486 1.486v1.062H1.486A1.493 1.493 0 000 126.034v17.239a1.493 1.493 0 001.486 1.486h37.96a1.493 1.493 0 001.486-1.486v-1.062h1.062a1.493 1.493 0 001.486-1.486v-17.239A1.493 1.493 0 0041.993 122zm-2.335 21.273a.21.21 0 01-.212.212H1.486a.21.21 0 01-.212-.212v-17.239a.21.21 0 01.212-.212h37.96a.21.21 0 01.212.212v17.239zm2.548-2.548a.21.21 0 01-.212.212h-1.062v-14.9a1.493 1.493 0 00-1.486-1.486H3.821v-1.062a.21.21 0 01.212-.212h37.96a.21.21 0 01.212.212z" transform="translate(0 -122)"/><path id="Path_15058" data-name="Path 15058" d="M52.037 272H31.062A1.062 1.062 0 0030 273.062v1.7a1.062 1.062 0 001.062 1.061h20.975a1.062 1.062 0 001.063-1.063v-1.7a1.062 1.062 0 00-1.063-1.06zm-.212 2.548H31.274v-1.274h20.551z" transform="translate(-27.452 -259.262)"/><path id="Path_15059" data-name="Path 15059" d="M327.827 302h-10.19a.637.637 0 100 1.274h10.19a.637.637 0 100-1.274z" transform="translate(-290.08 -286.714)"/><path id="Path_15060" data-name="Path 15060" d="M52.037 212H31.062A1.062 1.062 0 0030 213.062v1.7a1.062 1.062 0 001.062 1.062h20.975a1.062 1.062 0 001.063-1.064v-1.7a1.062 1.062 0 00-1.063-1.06zm-.212 2.548H31.274v-1.274h20.551z" transform="translate(-27.452 -204.357)"/><path id="Path_15061" data-name="Path 15061" d="M327.4 212h-9.341a1.062 1.062 0 00-1.059 1.062v1.7a1.062 1.062 0 001.062 1.062h9.338a1.062 1.062 0 001.062-1.062v-1.7A1.062 1.062 0 00327.4 212zm-.212 2.548h-8.917v-1.274h8.917z" transform="translate(-290.08 -204.357)"/><path id="Path_15062" data-name="Path 15062" d="M30.637 183.274h9.426a.637.637 0 000-1.274h-9.426a.637.637 0 000 1.274z" transform="translate(-27.452 -176.905)"/><path id="Path_15063" data-name="Path 15063" d="M44.949 332.678l-.968.968-.909-.909a1.061 1.061 0 00-1.5 0l-.909.909-.909-.909a1.061 1.061 0 00-1.5 0l-.909.909-.909-.909a1.061 1.061 0 00-1.5 0l-1.019 1.019a.637.637 0 10.9.9l.892-.858.909.909a1.048 1.048 0 00.747.314 1.033 1.033 0 00.747-.314l.909-.909.909.909a1.061 1.061 0 001.5 0l.909-.909.909.909a1.061 1.061 0 001.5 0l1.121-1.121a.641.641 0 000-.9.654.654 0 00-.92-.008z" transform="translate(-30.861 -314.556)"/><path id="Path_15064" data-name="Path 15064" d="M437.637 332.5a.642.642 0 00-.637.637v1.019a.637.637 0 001.274 0v-1.019a.642.642 0 00-.637-.637z" transform="translate(-399.89 -314.624)"/><path id="Path_15065" data-name="Path 15065" d="M407.637 332.5a.642.642 0 00-.637.637v1.019a.637.637 0 001.274 0v-1.019a.642.642 0 00-.637-.637z" transform="translate(-372.437 -314.624)"/><path id="Path_15066" data-name="Path 15066" d="M377.637 332.5a.642.642 0 00-.637.637v1.019a.637.637 0 001.274 0v-1.019a.642.642 0 00-.637-.637z" transform="translate(-344.985 -314.624)"/><path id="Path_15067" data-name="Path 15067" d="M347.637 332.5a.642.642 0 00-.637.637v1.019a.637.637 0 001.274 0v-1.019a.642.642 0 00-.637-.637z" transform="translate(-317.532 -314.624)"/><path id="Path_15068" data-name="Path 15068" d="M317.637 332.5a.642.642 0 00-.637.637v1.019a.637.637 0 001.274 0v-1.019a.642.642 0 00-.637-.637z" transform="translate(-290.08 -314.624)"/></svg>