<svg xmlns="http://www.w3.org/2000/svg" width="166.001" height="166.001"><defs><linearGradient id="linear-gradient" x1=".5" x2=".5" y2="1" gradientUnits="objectBoundingBox"><stop offset="0" stop-color="#e9f7fd"/><stop offset="1" stop-color="#d2eefa"/></linearGradient></defs><path id="Subtraction_11" data-name="Subtraction 11" d="M276 223a83.612 83.612 0 01-16.728-1.686 82.546 82.546 0 01-29.679-12.489 83.243 83.243 0 01-30.072-36.518 82.579 82.579 0 01-4.836-15.58 83.814 83.814 0 010-33.455 82.548 82.548 0 0112.489-29.679 83.244 83.244 0 0136.518-30.072 82.583 82.583 0 0115.58-4.836 83.808 83.808 0 0133.455 0 82.543 82.543 0 0129.679 12.489 83.242 83.242 0 0130.071 36.518 82.572 82.572 0 014.836 15.58 83.808 83.808 0 010 33.455 82.551 82.551 0 01-12.489 29.679 83.244 83.244 0 01-36.518 30.072 82.587 82.587 0 01-15.58 4.836A83.608 83.608 0 01276 223zm0-126.659a43.522 43.522 0 1016.994 3.431A43.388 43.388 0 00276 96.341z" transform="translate(-193 -57)" fill="url(#linear-gradient)"/></svg>