<svg version="1.1" id="odishatravel" xmlns="http://www.w3.org/2000/svg" x="0" y="0" viewBox="0 0 368 63.8" xml:space="preserve"><radialGradient id="SVGID_1_" cx="287.426" cy="-1022.791" r="38.286" gradientTransform="matrix(1 0 0 -1 -162.36 -1011.522)" gradientUnits="userSpaceOnUse"><stop offset="0" stop-color="#fff"/><stop offset=".043" stop-color="#eef7fc"/><stop offset=".129" stop-color="#c6e6f5"/><stop offset=".247" stop-color="#85cfee"/><stop offset=".33" stop-color="#55c2ef"/><stop offset=".483" stop-color="#3ea9d8"/><stop offset=".71" stop-color="#2983b6"/><stop offset=".89" stop-color="#1b6ba3"/><stop offset="1" stop-color="#14629b"/></radialGradient><circle cx="129.4" cy="28.5" r="27.2" fill="url(#SVGID_1_)"/><path d="M31.6 1.2c.2.1.4.1.5.1 2.6.1 5.2.5 7.7 1.3 2.8.9 5.6 2 8.4 3 .2.1.4.3.4.5v7.3c0 .1-.1.1-.1.3-.4-.2-.8-.4-1.1-.6-3.1-1.7-6.4-3.1-9.8-3.9-1.7-.4-3.4-.6-5.1-.8-1.4-.2-2.8-.2-4.2-.2-2.4.1-4.7.6-6.9 1.5-2.9 1.2-5.4 3.1-7.4 5.5-2.4 2.7-3.9 5.8-4.5 9.3-.3 1.7-.4 3.3-.4 5 .2 3.6 1 7 3 10.1 2.2 3.4 5 5.8 8.6 7.5 2 .9 4.1 1.4 6.3 1.7.8.1 1.7.2 2.5.3 3 .1 5.9-.4 8.8-1.2 1.1-.3 2.2-.6 3.3-1 .2-.1.4-.3.4-.5V36c0-.1-.1-.1-.1-.2H31.7V29h18v21.8c0 .5-.1.8-.7 1-3.4 1.4-6.9 2.6-10.6 3.2-1.8.3-3.6.5-5.4.7-.1 0-.2.1-.2.1h-5.5c-.1-.1-.1-.1-.2-.1-1.2-.2-2.4-.3-3.5-.4-2.8-.4-5.6-1.3-8.2-2.5-1.8-.9-3.5-1.9-5-3.3-1.4-1.3-2.8-2.6-4-4.1C5 43.7 3.9 41.8 3 39.8c-.9-2.3-1.6-4.6-1.9-7.1.1-.7 0-1.4-.1-2v-3.5c0-.1.1-.2.1-.3.2-1.7.3-3.3.7-4.9 1.5-6.2 5-11.2 10-15.1 2.7-2.1 5.7-3.6 9-4.5 2.2-.6 4.5-1.1 6.8-1.1.2 0 .3-.1.5-.1h3.5zm215.3 53.9H216V1.9h30.1v6.9h-22.4v16.1h21.6v6.9h-21.6v16.4h23.2v6.9zm-78.6 0V1.8h11.5c1.9 0 3.7 0 5.5.2 2.9.2 5.7.7 8.3 2.2 3.3 2 5.5 4.7 6.3 8.6.4 2.3.5 4.5-.2 6.8-.8 2.7-2.6 4.6-4.9 6.1-.7.5-1.5.8-2.3 1.2 1 .3 2.1.6 3.1 1 3.6 1.3 6.3 3.6 8.1 7 1.2 2.4 1.4 5 1.1 7.6-.3 2.3-1.1 4.3-2.5 6.1-1.1 1.5-2.6 2.7-4.2 3.8-2.1 1.3-4.4 2-6.8 2.4-1.2.2-2.4.3-3.6.3-6.2.1-12.3 0-18.5 0h-.9zm7.7-6.8h.8c3.6-.1 7.1-.1 10.6-.2 1.1-.1 2.2-.2 3.3-.4 4.1-1 6.8-5.1 6-9.2-.6-2.9-2.4-4.7-5-5.8-2.5-1-5.2-1-7.8-1.1-2.4-.1-4.8 0-7.2 0h-.7v16.7zm.1-23.6h4.7c1.9 0 3.8-.2 5.7-.7 2.4-.7 4.2-2.1 5.2-4.3.8-1.8.8-3.6.4-5.4-.3-1.4-1-2.6-2.2-3.5-1.9-1.4-4-1.8-6.2-1.9-2.3-.1-4.6 0-6.9 0-.2 0-.4 0-.6.1-.1 5.1-.1 10.3-.1 15.7zM71.5 48.2h24v6.9H63.8V1.9h7.7v46.3z" fill="#0060a9"/><path d="M311.9 3.6c.7.4 1.2.9 1.6 1.6.4.7.6 1.6.6 2.6v6.5h-2.3V8.1c0-1-.2-1.7-.7-2.3-.5-.5-1.2-.8-2-.8s-1.5.3-2 .8-.7 1.3-.7 2.3v6.2h-2.3V8.1c0-1-.2-1.7-.7-2.3-.5-.5-1.2-.8-2-.8-.9 0-1.5.3-2 .8s-.7 1.3-.7 2.3v6.2h-2.3v-11h2.3v1.3c.4-.5.8-.8 1.4-1.1s1.2-.4 1.8-.4c.9 0 1.7.2 2.4.6.7.4 1.2.9 1.6 1.6.3-.7.9-1.2 1.6-1.6.7-.4 1.5-.6 2.3-.6.7-.1 1.5.1 2.1.5zm7.1 10.1c-.8-.5-1.5-1.1-2-2s-.7-1.9-.7-3 .2-2.1.7-3c.5-.9 1.2-1.5 2-2 .9-.5 1.8-.7 2.9-.7s2 .2 2.9.7c.9.5 1.5 1.1 2 2 .5.9.7 1.9.7 3s-.3 2.1-.8 3-1.2 1.5-2.1 2-1.8.7-2.9.7c-.9 0-1.9-.2-2.7-.7zm4.5-1.7c.5-.3.9-.7 1.2-1.3.3-.6.5-1.2.5-2s-.2-1.5-.5-2c-.3-.6-.7-1-1.2-1.2-.5-.3-1-.5-1.6-.5s-1.1.1-1.6.4c-.5.3-.9.7-1.2 1.2-.3.6-.4 1.2-.4 2 0 1.2.3 2.1.9 2.7.6.6 1.4 1 2.3 1 .5.1 1 0 1.6-.3zm14.2-8.4c.7.4 1.2.9 1.6 1.6.4.7.6 1.6.6 2.6v6.5h-2.3V8.1c0-1-.2-1.7-.7-2.3-.5-.5-1.2-.8-2-.8-.9 0-1.5.3-2 .8s-.7 1.3-.7 2.3v6.2h-2.3v-11h2.3v1.3c.4-.5.8-.8 1.4-1.1s1.2-.4 1.8-.4c.8-.1 1.6.1 2.3.5zm15.1 6h-8.4c.1.9.4 1.6 1 2.1s1.3.8 2.2.8c1.2 0 2.1-.5 2.6-1.5h2.5c-.3 1-.9 1.8-1.8 2.5-.9.6-2 1-3.2 1-1.1 0-2-.2-2.8-.7s-1.5-1.1-2-2-.7-1.9-.7-3 .2-2.1.7-3c.5-.9 1.1-1.5 1.9-2 .8-.5 1.8-.7 2.9-.7 1 0 2 .2 2.8.7.8.5 1.4 1.1 1.9 1.9.5.8.7 1.8.7 2.8-.3.4-.3.7-.3 1.1zm-2.3-1.9c0-.8-.3-1.5-.9-2-.6-.5-1.4-.7-2.2-.7-.8 0-1.5.2-2 .7-.6.5-.9 1.2-1 2h6.1zM365 3.2l-6.8 16.2h-2.4L358 14l-4.3-10.8h2.5l3.1 8.4 3.2-8.4h2.5zm-62 38.2c.7.3 1.2.8 1.5 1.3v-1.6h2.3v11.2c0 1-.2 1.9-.6 2.7-.4.8-1 1.4-1.8 1.9s-1.8.7-2.9.7c-1.5 0-2.7-.3-3.7-1s-1.5-1.6-1.7-2.8h2.3c.2.6.5 1 1.1 1.4.6.4 1.2.5 2 .5.9 0 1.7-.3 2.2-.8.6-.6.8-1.4.8-2.4v-1.8c-.4.5-.9 1-1.6 1.3s-1.4.5-2.2.5c-1 0-1.8-.2-2.6-.7-.8-.5-1.4-1.2-1.9-2-.5-.9-.7-1.9-.7-3s.2-2.1.7-2.9c.5-.9 1.1-1.5 1.9-2s1.7-.7 2.6-.7c.9-.3 1.6-.1 2.3.2zm1.1 3.2c-.3-.6-.7-1-1.2-1.3s-1.1-.4-1.6-.4-1.1.1-1.6.4c-.5.3-.9.7-1.2 1.3-.3.6-.5 1.2-.5 2s.2 1.4.5 2c.3.6.7 1 1.2 1.3s1.1.4 1.6.4c.6 0 1.1-.1 1.6-.4s.9-.7 1.2-1.3c.3-.6.5-1.2.5-2-.1-.8-.2-1.4-.5-2zm9.3-3.2c.6-.3 1.2-.5 2-.5v2.4h-.6c-.9 0-1.6.2-2 .7-.5.5-.7 1.2-.7 2.4v5.8h-2.3v-11h2.3v1.6c.3-.7.8-1.1 1.3-1.4zm6.1 10.2c-.8-.5-1.5-1.1-2-2-.5-.9-.7-1.9-.7-3s.2-2.1.7-3c.5-.9 1.2-1.5 2-2 .9-.5 1.8-.7 2.9-.7s2 .2 2.9.7c.9.5 1.5 1.1 2 2 .5.9.7 1.9.7 3s-.3 2.1-.8 3c-.5.9-1.2 1.5-2.1 2s-1.8.7-2.9.7c-1 0-1.9-.2-2.7-.7zm4.4-1.7c.5-.3.9-.7 1.2-1.3.3-.6.5-1.2.5-2s-.2-1.5-.5-2c-.3-.6-.7-1-1.2-1.2-.5-.3-1.1-.4-1.6-.4s-1.1.1-1.6.4c-.5.3-.9.7-1.2 1.2s-.4 1.2-.4 2c0 1.2.3 2.1.9 2.7.6.6 1.4 1 2.3 1 .6 0 1.1-.1 1.6-.4zm21.1-8.8l-3.4 11h-2.4L337 44l-2.2 8.1h-2.4l-3.4-11h2.3l2.3 8.8 2.3-8.8h2.4l2.2 8.8 2.3-8.8h2.2z" fill="#005aa3"/><ellipse cx="129.3" cy="60.7" rx="21.5" ry="1.9" fill="#d4d4d4"/><path d="M313.3 24c.7.6 1 1.5 1 2.7 0 .3 0 .7-.1 1.1l-1.2 6.5h-2.3l1.1-6.2c.1-.4.1-.6.1-.8 0-.7-.2-1.3-.6-1.7-.4-.4-1-.6-1.7-.6-.9 0-1.6.3-2.2.8-.6.5-1 1.3-1.1 2.3l-1.1 6.2h-2.3l1.1-6.2c.1-.4.1-.6.1-.8 0-.7-.2-1.3-.6-1.7-.4-.4-1-.6-1.7-.6-.9 0-1.6.3-2.2.8-.6.5-1 1.3-1.1 2.3V28l-1.1 6.2h-2.3l1.9-11h2.3l-.2 1.3c.4-.5 1-.8 1.6-1.1.6-.3 1.3-.4 1.9-.4.9 0 1.6.2 2.3.6.6.4 1.1.9 1.3 1.6.4-.7 1-1.2 1.8-1.6s1.6-.6 2.4-.6c1.3.1 2.2.4 2.9 1zm14.6-.8l-1.9 11h-2.3l.2-1.3c-.4.5-1 .8-1.6 1.1s-1.3.4-1.9.4c-1.2 0-2.1-.3-2.8-.9s-1-1.5-1-2.7c0-.3 0-.7.1-1.1l1.1-6.5h2.3l-1.1 6.1c-.1.4-.1.6-.1.8 0 .7.2 1.3.6 1.7.4.4 1 .6 1.7.6.8 0 1.6-.2 2.1-.7.6-.5 1-1.2 1.2-2.2l1.1-6.3h2.3zm3 10.8c-.6-.3-1.1-.6-1.5-1.1s-.5-1-.5-1.6v-.4h2.2c-.1.5.1.9.5 1.3.4.3.9.5 1.5.5s1.2-.1 1.6-.3c.4-.2.6-.6.6-1s-.2-.7-.5-.9c-.3-.2-.9-.5-1.6-.8-.7-.3-1.3-.5-1.7-.8-.4-.2-.8-.6-1.1-1-.3-.4-.5-.9-.5-1.6 0-.6.2-1.2.5-1.7s.9-.9 1.5-1.1c.7-.3 1.4-.4 2.3-.4.8 0 1.5.1 2.1.4.6.3 1.1.6 1.4 1.1.3.5.5 1 .5 1.6v.4H336c.1-.5-.1-.9-.5-1.3-.4-.3-.9-.5-1.5-.5s-1 .1-1.4.4c-.4.2-.5.6-.5 1s.2.7.5 1c.4.2.9.5 1.7.8.7.3 1.2.5 1.7.8.4.2.8.6 1.1 1s.5.9.5 1.5c0 .7-.2 1.2-.6 1.7s-.9.9-1.6 1.1-1.5.4-2.4.4c-.7-.1-1.4-.2-2.1-.5zm11.9-2.8v.4c0 .3.1.5.3.6.2.1.5.2.9.2h1.4l-.3 1.9h-1.8c-.9 0-1.6-.2-2-.5-.5-.4-.7-.9-.7-1.7 0-.3 0-.6.1-.8l1.1-6.1h-1.3l.3-1.9h1.3l.5-2.7h2.3l-.5 2.7h2.7l-.3 1.9h-2.7l-1.3 6zM275 1.8h1.8V55H275z" fill="#005aa3"/></svg>