<svg xmlns="http://www.w3.org/2000/svg" width="32.042" height="32.042"><g id="Group_4875" data-name="Group 4875" transform="translate(-2.5 -2.5)" fill="#262424"><path id="Path_15087" data-name="Path 15087" d="M5.063 5.2a.145.145 0 01.137-.137h8.668V2.5H5.2a2.706 2.706 0 00-2.7 2.7v8.668h2.563z"/><path id="Path_15088" data-name="Path 15088" d="M72.6 72.468a.145.145 0 01-.135.135H63.8v2.563h8.668a2.706 2.706 0 002.7-2.7V63.8H72.6z" transform="translate(-40.624 -40.624)"/><path id="Path_15089" data-name="Path 15089" d="M72.468 2.5H63.8v2.563h8.668a.145.145 0 01.132.137v8.668h2.563V5.2a2.706 2.706 0 00-2.695-2.7z" transform="translate(-40.624)"/><path id="Path_15090" data-name="Path 15090" d="M5.063 72.468V63.8H2.5v8.668a2.706 2.706 0 002.7 2.7h8.668V72.6H5.2c-.1 0-.137-.03-.137-.132z" transform="translate(0 -40.624)"/><path id="Path_15091" data-name="Path 15091" d="M35.206 30.008V28.3h-5.2v-5.2H28.3v5.2h-5.2v1.71h5.2v5.2h1.71v-5.2z" transform="translate(-10.632 -10.632)"/></g></svg>