<svg xmlns="http://www.w3.org/2000/svg" width="27.16" height="31.921"><g id="noun_signature_667935" transform="translate(-10.7 -1.3)"><g id="Group_4871" data-name="Group 4871" transform="translate(10.7 1.3)"><g id="Group_4870" data-name="Group 4870" fill="#262424"><path id="Path_15052" data-name="Path 15052" d="M33.669 25.71h-3.957a1.274 1.274 0 00-1.274 1.274v4.761H12.343a.107.107 0 01-.1-.1V2.943a.107.107 0 01.1-.1h21.225a.107.107 0 01.1.1v1.878l.3-.4c1.073-1.408 1.174-1.542 1.14-1.643a1.438 1.438 0 00-1.54-1.478H12.309A1.632 1.632 0 0010.7 2.909v28.7a1.632 1.632 0 001.609 1.609h17.6v-.1c.369-.436 3.521-4.057 5.2-6l.034-.034V9.85l-1.474 2.18zm-3.755 5.3v-3.791h3.219z" transform="translate(-10.7 -1.3)"/><path id="Path_15053" data-name="Path 15053" d="M20.5 72.047l.771-.8.771.8.4-.4-.771-.771.771-.771-.4-.4-.771.771-.771-.776-.4.4.771.771-.771.771z" transform="translate(-16.948 -46.765)"/><path id="Rectangle_2570" data-name="Rectangle 2570" transform="translate(3.219 25.785)" d="M0 0h13.345v.671H0z"/><path id="Path_15054" data-name="Path 15054" d="M49.349 26.812l12.44-17.2-.8-.536.4-.57-1.073-.771-.4.536-.776-.571L46.7 24.868z" transform="translate(-34.629 -5.554)"/><path id="Rectangle_2571" data-name="Rectangle 2571" transform="rotate(-54.12 25.403 -1.23)" d="M0 0h.503v3.32H0z"/><path id="Path_15055" data-name="Path 15055" d="M41.6 65.153l.8.6 2.817-2.012-2.645-1.941z" transform="translate(-31.239 -41.514)"/><path id="Path_15056" data-name="Path 15056" d="M41.288 73.57c.1.067.335-.034.469-.268a.033.033 0 01.034-.034L41.422 73l-.034.034c-.167.234-.201.466-.1.536z" transform="translate(-30.994 -48.958)"/></g></g></g></svg>