<svg id="Group_4874" data-name="Group 4874" xmlns="http://www.w3.org/2000/svg" width="29.696" height="37.193"><path id="Path_15073" data-name="Path 15073" d="M32.1 1H9.9a2.517 2.517 0 00-2.5 2.5v29.811a2.48 2.48 0 002.5 2.5h2.15v.058a2.331 2.331 0 002.325 2.325h20.106a2.6 2.6 0 002.619-2.616V6a2.331 2.331 0 00-2.325-2.325H34.6V3.5A2.48 2.48 0 0032.1 1zM8.562 33.311V3.5A1.315 1.315 0 019.9 2.162h22.2A1.315 1.315 0 0133.435 3.5v29.811a1.315 1.315 0 01-1.335 1.337H9.9a1.393 1.393 0 01-1.338-1.337zM34.83 4.836A1.166 1.166 0 0135.992 6v29.58a1.439 1.439 0 01-1.453 1.453H14.432a1.166 1.166 0 01-1.162-1.162v-.061h18.887a2.48 2.48 0 002.5-2.5V4.836h.174z" transform="translate(-7.4 -1)"/><path id="Path_15074" data-name="Path 15074" d="M30.381 10.062H40.9a.581.581 0 100-1.162H30.381a.581.581 0 100 1.162z" transform="translate(-16.782 -4.309)"/><path id="Path_15075" data-name="Path 15075" d="M30.381 16.662H40.9a.581.581 0 100-1.162H30.381a.549.549 0 00-.581.581.582.582 0 00.581.581z" transform="translate(-16.782 -7.073)"/><path id="Path_15076" data-name="Path 15076" d="M12.281 25.462h21.037a.581.581 0 100-1.162H12.281a.549.549 0 00-.581.581.625.625 0 00.581.581z" transform="translate(-9.201 -10.759)"/><path id="Path_15077" data-name="Path 15077" d="M12.281 32.462h21.037a.581.581 0 000-1.162H12.281a.549.549 0 00-.581.581.582.582 0 00.581.581z" transform="translate(-9.201 -13.691)"/><path id="Path_15078" data-name="Path 15078" d="M12.281 39.562h21.037a.581.581 0 000-1.162H12.281a.549.549 0 00-.581.581.582.582 0 00.581.581z" transform="translate(-9.201 -16.665)"/><path id="Path_15079" data-name="Path 15079" d="M12.281 46.562h21.037a.581.581 0 000-1.162H12.281a.549.549 0 00-.581.581.582.582 0 00.581.581z" transform="translate(-9.201 -19.597)"/><path id="Path_15080" data-name="Path 15080" d="M27.158 53.081a.549.549 0 00-.581-.581h-14.3a.581.581 0 100 1.162h14.242a.637.637 0 00.639-.581z" transform="translate(-9.201 -22.571)"/></svg>