<?xml version="1.0" standalone="no"?>
<!DOCTYPE svg PUBLIC "-//W3C//DTD SVG 20010904//EN"
 "http://www.w3.org/TR/2001/REC-SVG-20010904/DTD/svg10.dtd">
<svg version="1.0" xmlns="http://www.w3.org/2000/svg"
 width="700.000000pt" height="700.000000pt" viewBox="0 0 700.000000 700.000000"
 preserveAspectRatio="xMidYMid meet">
<metadata>
Created by potrace 1.11, written by Peter Selinger 2001-2013
</metadata>
<g transform="translate(0.000000,700.000000) scale(0.100000,-0.100000)"
fill="#000000" stroke="none">
<path d="M3337 6924 c-1 -1 -45 -5 -97 -9 -96 -7 -111 -8 -187 -19 -24 -3 -62
-9 -85 -12 -24 -3 -106 -19 -183 -34 -330 -69 -679 -201 -970 -367 -71 -40
-253 -155 -280 -175 -5 -5 -53 -40 -105 -79 -294 -221 -580 -525 -787 -839
-167 -253 -290 -504 -390 -795 -36 -107 -108 -374 -117 -440 -4 -23 -8 -50
-10 -60 -3 -18 -12 -74 -21 -135 -5 -30 -12 -97 -21 -200 -13 -146 -7 -522 11
-640 2 -14 6 -47 10 -75 5 -44 12 -92 30 -190 11 -63 15 -84 40 -181 15 -54
28 -108 30 -118 11 -47 82 -251 126 -358 56 -135 157 -339 205 -416 19 -29 34
-55 34 -58 0 -3 37 -60 82 -127 335 -495 779 -888 1304 -1155 248 -126 605
-253 804 -287 19 -3 51 -10 70 -15 19 -5 55 -12 80 -15 24 -4 47 -8 50 -10 3
-2 35 -6 72 -9 37 -4 76 -9 86 -11 127 -24 566 -24 767 0 47 6 128 17 145 20
8 1 35 6 60 10 51 8 48 8 150 30 536 115 1078 387 1500 753 111 96 293 282
380 387 45 55 92 111 103 125 32 38 200 287 236 350 203 355 346 745 415 1135
3 17 8 41 10 55 6 32 17 113 21 165 2 22 7 76 11 120 13 153 7 532 -11 625 -2
8 -6 46 -9 84 -4 38 -9 72 -11 76 -2 3 -6 26 -10 50 -28 204 -109 486 -208
726 -47 114 -157 337 -202 409 -14 22 -28 47 -32 55 -29 65 -224 333 -337 465
-73 85 -290 302 -369 369 -281 237 -596 430 -925 565 -151 62 -374 134 -497
162 -27 6 -59 13 -70 15 -67 16 -220 43 -266 48 -30 4 -70 8 -89 11 -106 13
-533 28 -543 19z"/>
</g>
</svg>
