<?xml version="1.0" encoding="utf-8"?>
<!-- Generator: Adobe Illustrator 25.2.1, SVG Export Plug-In . SVG Version: 6.00 Build 0)  -->
<svg version="1.1" id="Group_4872" xmlns="http://www.w3.org/2000/svg" xmlns:xlink="http://www.w3.org/1999/xlink" x="0px" y="0px"
	 viewBox="0 0 40.7 30.7" style="enable-background:new 0 0 40.7 30.7;" xml:space="preserve">
<g>
	<path d="M38.9,4.1l-1.8-0.1V2c0-1-0.8-1.8-1.8-1.8H2C1,0.1,0.1,1,0.1,2v22.9c0,1,0.8,1.8,1.8,1.8h0.2c0,0.4,0.2,0.7,0.4,1
		c0.3,0.4,0.8,0.6,1.3,0.6L37,30.6c0,0,0.1,0,0.1,0c0.4,0,0.9-0.2,1.2-0.4c0.4-0.3,0.6-0.8,0.6-1.3L40.6,6C40.6,5,39.9,4.1,38.9,4.1
		z M35.7,10.8H1.5V6.1h34.3V10.8z M2,1.5h33.3c0.3,0,0.5,0.2,0.5,0.5v2.8H1.5V2C1.5,1.7,1.7,1.5,2,1.5z M1.5,24.9V12.2h34.3v12.7
		c0,0.3-0.2,0.5-0.5,0.5H2C1.7,25.4,1.5,25.2,1.5,24.9z M37.7,28.8c0,0.1-0.1,0.3-0.2,0.3c-0.1,0.1-0.2,0.1-0.4,0.1L3.9,27
		c-0.1,0-0.3-0.1-0.3-0.2c0,0,0-0.1-0.1-0.1h31.7c1,0,1.8-0.8,1.8-1.8V5.3l1.7,0.1c0.3,0,0.5,0.3,0.5,0.5L37.7,28.8z"/>
	<path d="M21.9,23.2h12V15h-12V23.2z M23.2,16.4h9.4v5.5h-9.4V16.4z"/>
	<rect x="3.8" y="14.6" width="4.3" height="1.3"/>
	<rect x="10.1" y="14.6" width="8.2" height="1.3"/>
	<rect x="4.2" y="17.8" width="9.1" height="1.3"/>
	<rect x="15.4" y="17.8" width="2.8" height="1.3"/>
</g>
</svg>
