<svg xmlns="http://www.w3.org/2000/svg" viewBox="0 0 400 400"><radialGradient id="a" cx="208.36" cy="1170.879" r="275.415" gradientTransform="matrix(1 0 0 -1 -8.36 1237.145)" gradientUnits="userSpaceOnUse"><stop offset="0" stop-color="#fff"/><stop offset=".043" stop-color="#eef9fe"/><stop offset=".129" stop-color="#c5e7f5"/><stop offset=".247" stop-color="#84d3f0"/><stop offset=".33" stop-color="#51c8f4"/><stop offset=".483" stop-color="#3ca7d5"/><stop offset=".71" stop-color="#2b82b5"/><stop offset=".89" stop-color="#1f6aa0"/><stop offset="1" stop-color="#1b6299"/></radialGradient><ellipse fill="url(#a)" cx="200" cy="200" rx="195.8" ry="195.8"/><path fill="#FFF" d="M72.6 162.1c.2 0 .4.2.6.2 3.6 0 7.2.6 10.6 1.7 3.8 1.2 7.8 2.8 11.6 4.3.2 0 .4.4.4.6v10s0 .2-.2.4c-.6-.2-1.1-.6-1.7-.9-4.3-2.3-8.7-4.3-13.5-5.3-2.3-.6-4.6-.9-7-1.1-1.9-.2-3.8-.2-5.7-.2-3.4.2-6.6.9-9.5 2.1-4 1.7-7.4 4.4-10.4 7.6-3.2 3.6-5.5 8-6.1 12.9-.4 2.3-.6 4.6-.4 6.8.2 4.9 1.2 9.7 4 14 2.9 4.6 7 8 11.8 10.4 2.8 1.2 5.7 2.1 8.7 2.3 1.1.2 2.3.2 3.4.4 4 0 8-.6 12.1-1.7 1.5-.4 2.9-.9 4.6-1.2.2 0 .6-.4.6-.6v-14.4-.2h-14v-9.3h24.8V231c0 .6-.2 1.1-.9 1.5-4.6 1.9-9.5 3.6-14.6 4.4-2.3.4-4.9.6-7.4.9 0 0-.2 0-.2.2h-7.6l-.2-.2c-1.7-.2-3.2-.4-4.9-.6-4-.6-7.6-1.7-11.2-3.4-2.6-1.2-4.9-2.6-6.8-4.4-1.9-1.9-3.8-3.6-5.5-5.7-1.9-2.3-3.4-4.9-4.6-7.8-1.4-3.4-2.3-6.5-2.7-9.9 0-.9-.2-1.7-.4-2.6v-4.9c0-.2.2-.2.2-.4.4-2.3.4-4.6.9-6.8 2.1-9.1 6.8-15.9 13.8-21.3 3.6-2.9 7.8-4.9 12.3-6.1 3.2-.9 6.1-1.5 9.3-1.5.4 0 .6-.2.9-.2 1.7-.1 3.2-.1 4.9-.1zM369.5 236.3H327v-73.4h41.5v9.5h-30.9v22.2h29.9v9.5h-29.9v22.7h31.9v9.5zM261.1 236.3v-73.4H277c2.6 0 5.1 0 7.6.2 4 .2 7.8 1.1 11.5 2.9 4.6 2.8 7.6 6.6 8.7 11.8.6 3.2.6 6.3-.2 9.3-1.1 3.8-3.6 6.3-6.8 8.4-1.1.6-2.1 1.1-3.2 1.7 1.5.4 2.8.9 4.3 1.2 4.9 1.9 8.7 4.9 11 9.7 1.7 3.4 1.9 6.8 1.5 10.6-.4 3.2-1.5 6-3.4 8.4-1.7 2.1-3.6 3.8-6 5.1-2.9 1.9-6.1 2.8-9.3 3.4-1.7.2-3.4.4-4.9.4h-25.6c-.2.3-.6.3-1.1.3zm10.6-9.2h1.1c4.9 0 9.7 0 14.6-.2 1.5 0 2.9-.2 4.4-.6 5.7-1.5 9.3-7 8.3-12.7-.9-4-3.2-6.6-7-8-3.4-1.5-7.2-1.5-10.8-1.5-3.4-.2-6.6 0-10 0h-1.1c.5 7.5.5 15.1.5 23zm0-32.7h6.6c2.6 0 5.3-.2 7.8-.9 3.2-.9 5.7-2.8 7.2-6 1.1-2.6 1.1-5.1.6-7.4-.4-1.9-1.2-3.6-2.9-4.9-2.6-1.9-5.5-2.6-8.7-2.6-3.2-.2-6.3 0-9.5 0h-.9c-.2 7.3-.2 14.5-.2 21.8zM127.6 226.8h33v9.5H117v-73.4h10.6v63.9z"/><ellipse fill="#FFF" cx="207.6" cy="199.8" rx="37.3" ry="37.3"/></svg>