<?xml version="1.0" encoding="utf-8"?>
<!-- Generator: Adobe Illustrator 24.0.3, SVG Export Plug-In . SVG Version: 6.00 Build 0)  -->
<svg version="1.1" id="odishatravel" xmlns="http://www.w3.org/2000/svg" xmlns:xlink="http://www.w3.org/1999/xlink" x="0px"
	 y="0px" viewBox="0 0 368 63.8" style="enable-background:new 0 0 368 63.8;" xml:space="preserve">
<g>
	
		<radialGradient id="SVGID_1_" cx="287.4258" cy="-1022.791" r="38.2863" gradientTransform="matrix(1 0 0 -1 -162.3599 -1011.5221)" gradientUnits="userSpaceOnUse">
		<stop  offset="0" style="stop-color:#FFFFFF"/>
		<stop  offset="4.350000e-02" style="stop-color:#EEF7FC"/>
		<stop  offset="0.1291" style="stop-color:#C6E6F5"/>
		<stop  offset="0.2473" style="stop-color:#85CFEE"/>
		<stop  offset="0.3303" style="stop-color:#55C2EF"/>
		<stop  offset="0.4826" style="stop-color:#3EA9D8"/>
		<stop  offset="0.7095" style="stop-color:#2983B6"/>
		<stop  offset="0.8898" style="stop-color:#1B6BA3"/>
		<stop  offset="1" style="stop-color:#14629B"/>
	</radialGradient>
	<circle style="fill:url(#SVGID_1_);" cx="129.4" cy="28.5" r="27.2"/>
	<path style="fill:#0060A9;" d="M31.6,1.2c0.2,0.1,0.4,0.1,0.5,0.1c2.6,0.1,5.2,0.5,7.7,1.3c2.8,0.9,5.6,2,8.4,3
		c0.2,0.1,0.4,0.3,0.4,0.5c0,2.4,0,4.9,0,7.3c0,0.1-0.1,0.1-0.1,0.3c-0.4-0.2-0.8-0.4-1.1-0.6c-3.1-1.7-6.4-3.1-9.8-3.9
		c-1.7-0.4-3.4-0.6-5.1-0.8c-1.4-0.2-2.8-0.2-4.2-0.2c-2.4,0.1-4.7,0.6-6.9,1.5c-2.9,1.2-5.4,3.1-7.4,5.5c-2.4,2.7-3.9,5.8-4.5,9.3
		c-0.3,1.7-0.4,3.3-0.4,5c0.2,3.6,1,7,3,10.1c2.2,3.4,5,5.8,8.6,7.5c2,0.9,4.1,1.4,6.3,1.7c0.8,0.1,1.7,0.2,2.5,0.3
		c3,0.1,5.9-0.4,8.8-1.2c1.1-0.3,2.2-0.6,3.3-1c0.2-0.1,0.4-0.3,0.4-0.5c0-3.5,0-6.9,0-10.4c0-0.1-0.1-0.1-0.1-0.2
		c-3.4,0-6.8,0-10.2,0c0-2.3,0-4.5,0-6.8c6,0,11.9,0,18,0c0,0.3,0,0.5,0,0.7c0,7,0,14,0,21.1c0,0.5-0.1,0.8-0.7,1
		c-3.4,1.4-6.9,2.6-10.6,3.2c-1.8,0.3-3.6,0.5-5.4,0.7c-0.1,0-0.2,0.1-0.2,0.1c-1.9,0-3.7,0-5.5,0c-0.1-0.1-0.1-0.1-0.2-0.1
		c-1.2-0.2-2.4-0.3-3.5-0.4c-2.8-0.4-5.6-1.3-8.2-2.5c-1.8-0.9-3.5-1.9-5-3.3c-1.4-1.3-2.8-2.6-4-4.1c-1.4-1.7-2.5-3.6-3.4-5.6
		c-0.9-2.3-1.6-4.6-1.9-7.1C1.2,32,1.1,31.3,1,30.7c0-1.1,0-2.3,0-3.5C1,27.1,1.1,27,1.1,26.9c0.2-1.7,0.3-3.3,0.7-4.9
		c1.5-6.2,5-11.2,10-15.1c2.7-2.1,5.7-3.6,9-4.5c2.2-0.6,4.5-1.1,6.8-1.1c0.2,0,0.3-0.1,0.5-0.1C29.2,1.2,30.4,1.2,31.6,1.2z"/>
	<path style="fill:#0060A9;" d="M246.9,55.1c-10.3,0-20.6,0-30.9,0c0-17.8,0-35.5,0-53.2c10,0,20,0,30.1,0c0,2.3,0,4.5,0,6.9
		c-7.4,0-14.9,0-22.4,0c0,5.4,0,10.7,0,16.1c7.2,0,14.4,0,21.6,0c0,2.3,0,4.5,0,6.9c-7.2,0-14.4,0-21.6,0c0,5.5,0,10.9,0,16.4
		c7.7,0,15.4,0,23.2,0C246.9,50.5,246.9,52.8,246.9,55.1z"/>
	<path style="fill:#0060A9;" d="M168.3,55.1c0-17.8,0-35.5,0-53.3c0.3,0,0.5,0,0.7,0c3.6,0,7.2,0,10.8,0c1.9,0,3.7,0,5.5,0.2
		c2.9,0.2,5.7,0.7,8.3,2.2c3.3,2,5.5,4.7,6.3,8.6c0.4,2.3,0.5,4.5-0.2,6.8c-0.8,2.7-2.6,4.6-4.9,6.1c-0.7,0.5-1.5,0.8-2.3,1.2
		c1,0.3,2.1,0.6,3.1,1c3.6,1.3,6.3,3.6,8.1,7c1.2,2.4,1.4,5,1.1,7.6c-0.3,2.3-1.1,4.3-2.5,6.1c-1.1,1.5-2.6,2.7-4.2,3.8
		c-2.1,1.3-4.4,2-6.8,2.4c-1.2,0.2-2.4,0.3-3.6,0.3c-6.2,0.1-12.3,0-18.5,0C168.9,55.1,168.6,55.1,168.3,55.1z M176,48.3
		c0.3,0,0.5,0,0.8,0c3.6-0.1,7.1-0.1,10.6-0.2c1.1-0.1,2.2-0.2,3.3-0.4c4.1-1,6.8-5.1,6-9.2c-0.6-2.9-2.4-4.7-5-5.8
		c-2.5-1-5.2-1-7.8-1.1c-2.4-0.1-4.8,0-7.2,0c-0.2,0-0.5,0-0.7,0C176,37.2,176,42.7,176,48.3z M176.1,24.7c1.6,0,3.1,0,4.7,0
		c1.9,0,3.8-0.2,5.7-0.7c2.4-0.7,4.2-2.1,5.2-4.3c0.8-1.8,0.8-3.6,0.4-5.4c-0.3-1.4-1-2.6-2.2-3.5c-1.9-1.4-4-1.8-6.2-1.9
		c-2.3-0.1-4.6,0-6.9,0c-0.2,0-0.4,0-0.6,0.1C176.1,14.1,176.1,19.3,176.1,24.7z"/>
	<path style="fill:#0060A9;" d="M71.5,48.2c8.1,0,16,0,24,0c0,2.3,0,4.6,0,6.9c-10.5,0-21.1,0-31.7,0c0-17.7,0-35.5,0-53.2
		c2.5,0,5.1,0,7.7,0C71.5,17.3,71.5,32.7,71.5,48.2z"/>
	<g style="enable-background:new    ;">
		<path style="fill:#005AA3;" d="M311.9,3.6c0.7,0.4,1.2,0.9,1.6,1.6c0.4,0.7,0.6,1.6,0.6,2.6v6.5h-2.3V8.1c0-1-0.2-1.7-0.7-2.3
			c-0.5-0.5-1.2-0.8-2-0.8s-1.5,0.3-2,0.8c-0.5,0.5-0.7,1.3-0.7,2.3v6.2h-2.3V8.1c0-1-0.2-1.7-0.7-2.3c-0.5-0.5-1.2-0.8-2-0.8
			c-0.9,0-1.5,0.3-2,0.8c-0.5,0.5-0.7,1.3-0.7,2.3v6.2h-2.3v-11h2.3v1.3c0.4-0.5,0.8-0.8,1.4-1.1s1.2-0.4,1.8-0.4
			c0.9,0,1.7,0.2,2.4,0.6c0.7,0.4,1.2,0.9,1.6,1.6c0.3-0.7,0.9-1.2,1.6-1.6c0.7-0.4,1.5-0.6,2.3-0.6C310.5,3,311.3,3.2,311.9,3.6z"
			/>
		<path style="fill:#005AA3;" d="M319,13.7c-0.8-0.5-1.5-1.1-2-2s-0.7-1.9-0.7-3c0-1.1,0.2-2.1,0.7-3c0.5-0.9,1.2-1.5,2-2
			c0.9-0.5,1.8-0.7,2.9-0.7s2,0.2,2.9,0.7c0.9,0.5,1.5,1.1,2,2c0.5,0.9,0.7,1.9,0.7,3s-0.3,2.1-0.8,3s-1.2,1.5-2.1,2
			s-1.8,0.7-2.9,0.7C320.8,14.4,319.8,14.2,319,13.7z M323.5,12c0.5-0.3,0.9-0.7,1.2-1.3c0.3-0.6,0.5-1.2,0.5-2c0-0.8-0.2-1.5-0.5-2
			c-0.3-0.6-0.7-1-1.2-1.2C323,5.2,322.5,5,321.9,5s-1.1,0.1-1.6,0.4c-0.5,0.3-0.9,0.7-1.2,1.2c-0.3,0.6-0.4,1.2-0.4,2
			c0,1.2,0.3,2.1,0.9,2.7c0.6,0.6,1.4,1,2.3,1C322.4,12.4,322.9,12.3,323.5,12z"/>
		<path style="fill:#005AA3;" d="M337.7,3.6c0.7,0.4,1.2,0.9,1.6,1.6c0.4,0.7,0.6,1.6,0.6,2.6v6.5h-2.3V8.1c0-1-0.2-1.7-0.7-2.3
			c-0.5-0.5-1.2-0.8-2-0.8c-0.9,0-1.5,0.3-2,0.8c-0.5,0.5-0.7,1.3-0.7,2.3v6.2h-2.3v-11h2.3v1.3c0.4-0.5,0.8-0.8,1.4-1.1
			s1.2-0.4,1.8-0.4C336.2,3,337,3.2,337.7,3.6z"/>
		<path style="fill:#005AA3;" d="M352.8,9.6h-8.4c0.1,0.9,0.4,1.6,1,2.1c0.6,0.5,1.3,0.8,2.2,0.8c1.2,0,2.1-0.5,2.6-1.5h2.5
			c-0.3,1-0.9,1.8-1.8,2.5c-0.9,0.6-2,1-3.2,1c-1.1,0-2-0.2-2.8-0.7s-1.5-1.1-2-2s-0.7-1.9-0.7-3c0-1.1,0.2-2.1,0.7-3
			c0.5-0.9,1.1-1.5,1.9-2c0.8-0.5,1.8-0.7,2.9-0.7c1,0,2,0.2,2.8,0.7c0.8,0.5,1.4,1.1,1.9,1.9c0.5,0.8,0.7,1.8,0.7,2.8
			C352.8,8.9,352.8,9.2,352.8,9.6z M350.5,7.7c0-0.8-0.3-1.5-0.9-2C349,5.2,348.2,5,347.4,5c-0.8,0-1.5,0.2-2,0.7
			c-0.6,0.5-0.9,1.2-1,2H350.5z"/>
		<path style="fill:#005AA3;" d="M365,3.2l-6.8,16.2h-2.4l2.2-5.4l-4.3-10.8h2.5l3.1,8.4l3.2-8.4H365z"/>
	</g>
	<g>
		<g style="enable-background:new    ;">
			<path style="fill:#005AA3;" d="M303,41.4c0.7,0.3,1.2,0.8,1.5,1.3v-1.6h2.3v11.2c0,1-0.2,1.9-0.6,2.7c-0.4,0.8-1,1.4-1.8,1.9
				s-1.8,0.7-2.9,0.7c-1.5,0-2.7-0.3-3.7-1s-1.5-1.6-1.7-2.8h2.3c0.2,0.6,0.5,1,1.1,1.4c0.6,0.4,1.2,0.5,2,0.5
				c0.9,0,1.7-0.3,2.2-0.8c0.6-0.6,0.8-1.4,0.8-2.4v-1.8c-0.4,0.5-0.9,1-1.6,1.3s-1.4,0.5-2.2,0.5c-1,0-1.8-0.2-2.6-0.7
				c-0.8-0.5-1.4-1.2-1.9-2c-0.5-0.9-0.7-1.9-0.7-3s0.2-2.1,0.7-2.9c0.5-0.9,1.1-1.5,1.9-2s1.7-0.7,2.6-0.7
				C301.6,40.9,302.3,41.1,303,41.4z M304.1,44.6c-0.3-0.6-0.7-1-1.2-1.3s-1.1-0.4-1.6-0.4s-1.1,0.1-1.6,0.4
				c-0.5,0.3-0.9,0.7-1.2,1.3c-0.3,0.6-0.5,1.2-0.5,2c0,0.8,0.2,1.4,0.5,2c0.3,0.6,0.7,1,1.2,1.3s1.1,0.4,1.6,0.4
				c0.6,0,1.1-0.1,1.6-0.4s0.9-0.7,1.2-1.3c0.3-0.6,0.5-1.2,0.5-2C304.5,45.8,304.4,45.2,304.1,44.6z"/>
			<path style="fill:#005AA3;" d="M313.4,41.4c0.6-0.3,1.2-0.5,2-0.5v2.4h-0.6c-0.9,0-1.6,0.2-2,0.7c-0.5,0.5-0.7,1.2-0.7,2.4v5.8
				h-2.3v-11h2.3v1.6C312.4,42.1,312.9,41.7,313.4,41.4z"/>
			<path style="fill:#005AA3;" d="M319.5,51.6c-0.8-0.5-1.5-1.1-2-2c-0.5-0.9-0.7-1.9-0.7-3c0-1.1,0.2-2.1,0.7-3
				c0.5-0.9,1.2-1.5,2-2c0.9-0.5,1.8-0.7,2.9-0.7s2,0.2,2.9,0.7c0.9,0.5,1.5,1.1,2,2c0.5,0.9,0.7,1.9,0.7,3c0,1.1-0.3,2.1-0.8,3
				c-0.5,0.9-1.2,1.5-2.1,2s-1.8,0.7-2.9,0.7C321.2,52.3,320.3,52.1,319.5,51.6z M323.9,49.9c0.5-0.3,0.9-0.7,1.2-1.3
				c0.3-0.6,0.5-1.2,0.5-2c0-0.8-0.2-1.5-0.5-2c-0.3-0.6-0.7-1-1.2-1.2c-0.5-0.3-1.1-0.4-1.6-0.4s-1.1,0.1-1.6,0.4
				c-0.5,0.3-0.9,0.7-1.2,1.2s-0.4,1.2-0.4,2c0,1.2,0.3,2.1,0.9,2.7c0.6,0.6,1.4,1,2.3,1C322.9,50.3,323.4,50.2,323.9,49.9z"/>
			<path style="fill:#005AA3;" d="M345,41.1l-3.4,11h-2.4L337,44l-2.2,8.1h-2.4l-3.4-11h2.3l2.3,8.8l2.3-8.8h2.4l2.2,8.8l2.3-8.8
				H345z"/>
		</g>
	</g>
	<ellipse style="fill:#D4D4D4;" cx="129.3" cy="60.7" rx="21.5" ry="1.9"/>
	<g style="enable-background:new    ;">
		<path style="fill:#005AA3;" d="M313.3,24c0.7,0.6,1,1.5,1,2.7c0,0.3,0,0.7-0.1,1.1l-1.2,6.5h-2.3l1.1-6.2c0.1-0.4,0.1-0.6,0.1-0.8
			c0-0.7-0.2-1.3-0.6-1.7c-0.4-0.4-1-0.6-1.7-0.6c-0.9,0-1.6,0.3-2.2,0.8c-0.6,0.5-1,1.3-1.1,2.3l-1.1,6.2h-2.3l1.1-6.2
			c0.1-0.4,0.1-0.6,0.1-0.8c0-0.7-0.2-1.3-0.6-1.7c-0.4-0.4-1-0.6-1.7-0.6c-0.9,0-1.6,0.3-2.2,0.8c-0.6,0.5-1,1.3-1.1,2.3V28
			l-1.1,6.2h-2.3l1.9-11h2.3l-0.2,1.3c0.4-0.5,1-0.8,1.6-1.1c0.6-0.3,1.3-0.4,1.9-0.4c0.9,0,1.6,0.2,2.3,0.6
			c0.6,0.4,1.1,0.9,1.3,1.6c0.4-0.7,1-1.2,1.8-1.6s1.6-0.6,2.4-0.6C311.7,23.1,312.6,23.4,313.3,24z"/>
		<path style="fill:#005AA3;" d="M327.9,23.2l-1.9,11h-2.3l0.2-1.3c-0.4,0.5-1,0.8-1.6,1.1s-1.3,0.4-1.9,0.4c-1.2,0-2.1-0.3-2.8-0.9
			s-1-1.5-1-2.7c0-0.3,0-0.7,0.1-1.1l1.1-6.5h2.3l-1.1,6.1c-0.1,0.4-0.1,0.6-0.1,0.8c0,0.7,0.2,1.3,0.6,1.7c0.4,0.4,1,0.6,1.7,0.6
			c0.8,0,1.6-0.2,2.1-0.7c0.6-0.5,1-1.2,1.2-2.2l1.1-6.3H327.9z"/>
		<path style="fill:#005AA3;" d="M330.9,34c-0.6-0.3-1.1-0.6-1.5-1.1s-0.5-1-0.5-1.6c0-0.1,0-0.3,0-0.4h2.2
			c-0.1,0.5,0.1,0.9,0.5,1.3c0.4,0.3,0.9,0.5,1.5,0.5c0.6,0,1.2-0.1,1.6-0.3c0.4-0.2,0.6-0.6,0.6-1c0-0.4-0.2-0.7-0.5-0.9
			c-0.3-0.2-0.9-0.5-1.6-0.8c-0.7-0.3-1.3-0.5-1.7-0.8c-0.4-0.2-0.8-0.6-1.1-1c-0.3-0.4-0.5-0.9-0.5-1.6c0-0.6,0.2-1.2,0.5-1.7
			s0.9-0.9,1.5-1.1c0.7-0.3,1.4-0.4,2.3-0.4c0.8,0,1.5,0.1,2.1,0.4c0.6,0.3,1.1,0.6,1.4,1.1c0.3,0.5,0.5,1,0.5,1.6
			c0,0.2,0,0.3,0,0.4h-2.2c0.1-0.5-0.1-0.9-0.5-1.3c-0.4-0.3-0.9-0.5-1.5-0.5c-0.6,0-1,0.1-1.4,0.4c-0.4,0.2-0.5,0.6-0.5,1
			s0.2,0.7,0.5,1c0.4,0.2,0.9,0.5,1.7,0.8c0.7,0.3,1.2,0.5,1.7,0.8c0.4,0.2,0.8,0.6,1.1,1s0.5,0.9,0.5,1.5c0,0.7-0.2,1.2-0.6,1.7
			s-0.9,0.9-1.6,1.1s-1.5,0.4-2.4,0.4C332.3,34.4,331.6,34.3,330.9,34z"/>
		<path style="fill:#005AA3;" d="M342.8,31.2c0,0.2,0,0.3,0,0.4c0,0.3,0.1,0.5,0.3,0.6c0.2,0.1,0.5,0.2,0.9,0.2h1.4l-0.3,1.9h-1.8
			c-0.9,0-1.6-0.2-2-0.5c-0.5-0.4-0.7-0.9-0.7-1.7c0-0.3,0-0.6,0.1-0.8l1.1-6.1h-1.3l0.3-1.9h1.3l0.5-2.7h2.3l-0.5,2.7h2.7l-0.3,1.9
			h-2.7L342.8,31.2z"/>
	</g>
	<rect x="275" y="1.8" style="fill:#005AA3;" width="1.8" height="53.2"/>
</g>
</svg>
