<?xml version="1.0" encoding="utf-8"?>
<!-- Generator: Adobe Illustrator 25.2.1, SVG Export Plug-In . SVG Version: 6.00 Build 0)  -->
<svg version="1.1" id="Group_4872" xmlns="http://www.w3.org/2000/svg" xmlns:xlink="http://www.w3.org/1999/xlink" x="0px" y="0px"
	 viewBox="0 0 30.3 22.9" style="enable-background:new 0 0 30.3 22.9;" xml:space="preserve">
<g>
	<path d="M28.9,3.1L27.6,3V1.5c0-0.7-0.6-1.4-1.4-1.4H1.4c-0.7,0-1.4,0.6-1.4,1.4v17.1c0,0.7,0.6,1.4,1.4,1.4h0.1
		c0,0.3,0.1,0.5,0.3,0.7c0.2,0.3,0.6,0.4,0.9,0.5l24.7,1.7c0,0,0.1,0,0.1,0c0.3,0,0.6-0.1,0.9-0.3c0.3-0.2,0.4-0.6,0.5-0.9l1.2-17
		C30.2,3.8,29.7,3.1,28.9,3.1z M26.6,8.1H1.1V4.6h25.5V8.1z M1.4,1.1h24.8c0.2,0,0.4,0.2,0.4,0.4v2.1H1.1V1.5
		C1.1,1.3,1.2,1.1,1.4,1.1z M1.1,18.6V9.1h25.5v9.5c0,0.2-0.2,0.4-0.4,0.4H1.4C1.2,18.9,1.1,18.8,1.1,18.6z M28,21.5
		c0,0.1-0.1,0.2-0.1,0.3c-0.1,0.1-0.2,0.1-0.3,0.1L2.9,20.1c-0.1,0-0.2-0.1-0.3-0.1c0,0,0,0,0-0.1h23.6c0.7,0,1.4-0.6,1.4-1.4V4
		L28.8,4c0.2,0,0.4,0.2,0.3,0.4L28,21.5z"/>
	<path d="M16.3,17.3h8.9v-6.1h-8.9V17.3z M17.3,12.2h7v4.1h-7V12.2z"/>
	<rect x="2.8" y="10.9" width="3.2" height="1"/>
	<rect x="7.5" y="10.9" width="6.1" height="1"/>
	<rect x="3.1" y="13.3" width="6.8" height="1"/>
	<rect x="11.5" y="13.3" width="2.1" height="1"/>
</g>
</svg>
