<?xml version="1.0" encoding="utf-8"?>
<!-- Generator: Adobe Illustrator 24.0.1, SVG Export Plug-In . SVG Version: 6.00 Build 0)  -->
<svg version="1.1" id="Layer_1" xmlns="http://www.w3.org/2000/svg" xmlns:xlink="http://www.w3.org/1999/xlink" x="0px" y="0px"
	 viewBox="0 0 200 200" style="enable-background:new 0 0 200 200;" xml:space="preserve">
<rect x="-0.3" y="-0.8" style="fill:#FFFFFF;" width="200.7" height="201.5"/>
<g>
	<path style="fill:#29ABE2;" d="M115.7,109.2c4.6,1.6,8.8,3.9,12.6,6.8s6.9,6.2,9.5,10.2c2.6,3.9,4.6,8,6,12.6s2.2,9.2,2.2,14.3
		h-6.5c0-5.7-0.9-10.9-3-15.7c-2-4.9-4.8-9.1-8.3-12.6c-3.5-3.5-7.7-6.4-12.5-8.4s-10-3-15.6-3c-3.7,0-7.2,0.4-10.6,1.4
		s-6.5,2.3-9.5,3.9c-3,1.8-5.6,3.8-8,6.1c-2.4,2.4-4.5,5-6.1,8s-3,6.1-3.9,9.5s-1.4,6.9-1.4,10.7H54c0-5,0.7-9.8,2.2-14.3
		s3.5-8.7,6.1-12.5c2.6-3.8,5.8-7.2,9.6-10c3.8-2.9,7.9-5.2,12.6-6.9c-2.7-1.5-5-3.3-7.2-5.3s-3.9-4.3-5.4-6.9s-2.6-5.3-3.4-8.1
		c-0.7-3-1.2-6-1.2-9c0-4.6,0.8-8.8,2.6-12.9C71.7,63,74,59.6,77,56.5c3-3,6.5-5.4,10.5-7.1c3.9-1.8,8.3-2.6,12.8-2.6
		c4.6,0,8.8,0.8,12.8,2.6c3.9,1.8,7.5,4.1,10.5,7.1s5.3,6.5,7.1,10.6s2.6,8.3,2.6,12.9c0,3-0.4,6-1.2,8.8c-0.8,2.9-1.9,5.6-3.4,8
		c-1.5,2.6-3.3,4.9-5.4,6.9C120.7,106.1,118.3,107.9,115.7,109.2z M73.6,80.2c0,3.7,0.7,7.1,2,10.3s3.3,6,5.7,8.4
		c2.4,2.4,5.2,4.3,8.4,5.7c3.1,1.4,6.7,2,10.2,2c3.7,0,7.1-0.7,10.2-2c3.1-1.4,6-3.3,8.4-5.7c2.4-2.4,4.2-5.2,5.7-8.4
		c1.4-3.3,2-6.7,2-10.3c0-3.7-0.7-7.1-2-10.3c-1.4-3.3-3.3-6-5.7-8.4c-2.4-2.4-5.2-4.3-8.4-5.7c-3.1-1.4-6.7-2-10.2-2
		c-3.7,0-7.1,0.7-10.2,2c-3.1,1.4-6,3.3-8.4,5.7s-4.2,5.2-5.7,8.4C74.3,73,73.6,76.5,73.6,80.2z"/>
</g>
</svg>
