<?xml version="1.0" encoding="utf-8"?>
<!-- Generator: Adobe Illustrator 25.2.1, SVG Export Plug-In . SVG Version: 6.00 Build 0)  -->
<svg version="1.1" id="Layer_1" xmlns="http://www.w3.org/2000/svg" xmlns:xlink="http://www.w3.org/1999/xlink" x="0px" y="0px"
	 viewBox="0 0 120 120" style="enable-background:new 0 0 120 120;" xml:space="preserve">
<path style="fill:#003E78;" d="M28.48,62.55c0-14.73,11.95-26.68,26.68-26.68c-14.73,0-26.68-11.94-26.68-26.68
	c0,14.73-11.95,26.68-26.68,26.68C16.53,35.88,28.48,47.82,28.48,62.55z"/>
<path style="fill:#1E7AE1;" d="M64.18,32.87c0-8.01,6.5-14.51,14.51-14.51c-8.01,0-14.51-6.5-14.51-14.51
	c0,8.01-6.5,14.51-14.51,14.51C57.68,18.36,64.18,24.86,64.18,32.87z"/>
<path style="fill:#003E78;" d="M90.6,19.67c0-5.17,4.19-9.37,9.37-9.37c-5.17,0-9.37-4.19-9.37-9.37c0,5.17-4.19,9.37-9.37,9.37
	C86.4,10.31,90.6,14.5,90.6,19.67z"/>
<path style="fill:#00397B;" d="M77.94,72.3L64,86.41L50.05,72.3h10.5V37.35h6.89V72.3H77.94z"/>
<rect x="35.94" y="93.3" style="fill:#00397B;" width="56.11" height="7.06"/>
<g>
	<g>
		<path style="fill:#1E7AE1;" d="M52.17,43.89c-5.81,0.87-10.81,4.25-13.85,8.99h13.85V43.89z"/>
		<path style="fill:#1E7AE1;" d="M105.94,43.55H75.82v9.34h29.04v56.84H21.49V60.16c-0.93-5.24-3.9-9.77-8.05-12.76
			c-0.81,1.28-1.28,2.78-1.28,4.4v58.98c0,4.56,3.71,8.26,8.26,8.26h85.52c4.56,0,8.26-3.71,8.26-8.26V51.81
			C114.2,47.25,110.49,43.55,105.94,43.55z"/>
	</g>
</g>
</svg>
