<?xml version="1.0" encoding="utf-8"?>
<!-- Generator: Adobe Illustrator 24.0.1, SVG Export Plug-In . SVG Version: 6.00 Build 0)  -->
<svg version="1.1" id="Layer_1" xmlns="http://www.w3.org/2000/svg" xmlns:xlink="http://www.w3.org/1999/xlink" x="0px" y="0px"
	 viewBox="0 0 120 120" style="enable-background:new 0 0 120 120;" xml:space="preserve">
<style type="text/css">
	.st0{fill:#1E7AE1;}
	.st1{fill:#00397B;}
</style>
<path class="st0" d="M102.2,31.8c-4.6-3.9-9.6-6.4-10.6-6.9c-0.1,0-0.1-0.1-0.1-0.2c0-0.5,0-1.7,0-3c0.5-1,0.7-1.9,0.8-2.9
	c0.4,0.2,1.1,0.1,1.8-2.5c0.6-2.2,0.2-2.9-0.2-3.1h-0.1c0.1-0.4,0.1-0.5,0.1-0.5c2-8.4-2.7-8.1-2.7-8.1c-0.4-1.7-2.8-3.5-5.1-3
	c-2.2,0.5-6.7-0.1-6.7-0.1c-0.1,1,0.7,1.7,0.7,1.7c-4.7,2.9-2.8,9.5-2.8,9.5c-0.7-0.1-1.6,0.4-0.7,3.1c0.6,2,1.1,2.6,1.6,2.6
	c0.1,1.2,0.6,2.4,1.2,3.6v2.5c0,0.1-0.1,0.2-0.1,0.2c-1,0.5-6,3-10.6,6.9c-0.8,0.7-1.3,1.7-1.3,2.8v5.2v19.1c0,2.9,1,5.5,2.8,7.8
	l3.8,4.6l3.5,44.6c0.1,1.6,1.4,2.8,3,2.8l11.6-0.2c1.2,0,3-0.1,3.1-2.7c0-1.1,0-2.4,0-4c-2.1-2.4-4-4.5-5.6-6.2l-0.2-0.2
	c-0.9-1.1-1.3-2.3-1.3-3.7v-3.2c0-1,0.3-2,0.8-2.9c-0.5-0.9-0.8-1.9-0.8-2.9V90c0-0.8,0.2-1.5,0.5-2.2C88.2,87,88,86.3,88,85.5v-3.3
	c0-1.5,0.6-2.9,1.6-4c1-1.1,2.5-1.6,4-1.6h2.9c0.2-3.4,0.3-5.6,0.3-5.6l3.8-4.6c1.8-2.2,2.9-4.9,2.9-7.8v-19v-5
	C103.5,33.5,103.1,32.4,102.2,31.8z M85.5,51.9l-2.9-3.1l1.8-15.6c-3.6-5.2,0.4-5.4,1.1-5.4s4.7,0.2,1,5.4l1.8,15.6L85.5,51.9z"/>
<path d="M115.2,92.5c0,0.2-0.1,0.4-0.2,0.6s-0.3,0.2-0.6,0.2h-4.2c-0.4,2.4-1.5,4.3-3.2,5.9c-1.8,1.5-4.1,2.4-6.9,2.8
	c2.8,2.9,6.6,7.4,11.5,13.4c0.2,0.3,0.3,0.5,0.1,0.8c-0.2,0.3-0.4,0.5-0.7,0.5h-4.8c-0.3,0-0.5-0.1-0.6-0.3
	c-5.1-6.1-9.2-10.9-12.5-14.2c-0.2-0.2-0.2-0.4-0.2-0.6v-3.2c0-0.2,0.1-0.4,0.2-0.5c0.2-0.2,0.4-0.3,0.6-0.3h2.8
	c2.2,0,4-0.3,5.3-1.1c1.3-0.7,2.2-1.8,2.5-3.2H93.6c-0.2,0-0.4-0.1-0.6-0.2s-0.2-0.3-0.2-0.6V90c0-0.2,0.1-0.4,0.2-0.6
	c0.2-0.2,0.3-0.2,0.6-0.2h10.3c-0.9-1.9-3.2-2.8-6.7-2.8h-3.6c-0.2,0-0.4-0.1-0.6-0.3c-0.2-0.2-0.2-0.3-0.2-0.6v-3.3
	c0-0.2,0.1-0.4,0.2-0.6s0.3-0.2,0.6-0.2h20.8c0.2,0,0.4,0.1,0.6,0.2s0.2,0.3,0.2,0.6v2.6c0,0.2-0.1,0.4-0.2,0.6s-0.3,0.2-0.6,0.2
	h-5.8c0.8,1,1.3,2.2,1.6,3.6h4.3c0.2,0,0.4,0.1,0.6,0.2c0.1,0.2,0.2,0.4,0.2,0.6L115.2,92.5L115.2,92.5z"/>
<path class="st1" d="M115.2,92.5c0,0.2-0.1,0.4-0.2,0.6s-0.3,0.2-0.6,0.2h-4.2c-0.4,2.4-1.5,4.3-3.2,5.9c-1.8,1.5-4.1,2.4-6.9,2.8
	c2.8,2.9,6.6,7.4,11.5,13.4c0.2,0.3,0.3,0.5,0.1,0.8c-0.2,0.3-0.4,0.5-0.7,0.5h-4.8c-0.3,0-0.5-0.1-0.6-0.3
	c-5.1-6.1-9.2-10.9-12.5-14.2c-0.2-0.2-0.2-0.4-0.2-0.6v-3.2c0-0.2,0.1-0.4,0.2-0.5c0.2-0.2,0.4-0.3,0.6-0.3h2.8
	c2.2,0,4-0.3,5.3-1.1c1.3-0.7,2.2-1.8,2.5-3.2H93.6c-0.2,0-0.4-0.1-0.6-0.2s-0.2-0.3-0.2-0.6V90c0-0.2,0.1-0.4,0.2-0.6
	c0.2-0.2,0.3-0.2,0.6-0.2h10.3c-0.9-1.9-3.2-2.8-6.7-2.8h-3.6c-0.2,0-0.4-0.1-0.6-0.3c-0.2-0.2-0.2-0.3-0.2-0.6v-3.3
	c0-0.2,0.1-0.4,0.2-0.6s0.3-0.2,0.6-0.2h20.8c0.2,0,0.4,0.1,0.6,0.2s0.2,0.3,0.2,0.6v2.6c0,0.2-0.1,0.4-0.2,0.6s-0.3,0.2-0.6,0.2
	h-5.8c0.8,1,1.3,2.2,1.6,3.6h4.3c0.2,0,0.4,0.1,0.6,0.2c0.1,0.2,0.2,0.4,0.2,0.6L115.2,92.5L115.2,92.5z"/>
</svg>
