<?xml version="1.0" encoding="utf-8"?>
<!-- Generator: Adobe Illustrator 24.0.1, SVG Export Plug-In . SVG Version: 6.00 Build 0)  -->
<svg version="1.1" id="Layer_1" xmlns="http://www.w3.org/2000/svg" xmlns:xlink="http://www.w3.org/1999/xlink" x="0px" y="0px"
	 viewBox="0 0 120 120" style="enable-background:new 0 0 120 120;" xml:space="preserve">
<style type="text/css">
	.st0{fill-rule:evenodd;clip-rule:evenodd;fill:#1E7AE1;}
	.st1{fill-rule:evenodd;clip-rule:evenodd;fill:#00397B;}
</style>
<g>
	<path class="st0" d="M35,61.1c-14.9,0-27-12.1-27-27s12.1-27,27-27c14.9,0,27,12.1,27,27C62,49,49.9,61.1,35,61.1 M45.5,28.4
		c0,0.2-0.1,0.4-0.2,0.5c-0.1,0.1-0.3,0.2-0.5,0.2h-3.9c-0.4,2.2-1.4,4.1-3,5.5c-1.6,1.4-3.8,2.2-6.5,2.6c2.6,2.8,6.2,6.9,10.8,12.5
		c0.2,0.2,0.2,0.5,0.1,0.8c-0.1,0.3-0.4,0.5-0.7,0.5H37c-0.2,0-0.4-0.1-0.6-0.3c-4.8-5.7-8.7-10.2-11.7-13.3
		c-0.1-0.2-0.2-0.3-0.2-0.5v-3c0-0.2,0.1-0.4,0.2-0.5c0.2-0.2,0.3-0.2,0.5-0.2h2.6c2.1,0,3.7-0.3,5-1c1.2-0.7,2.1-1.7,2.4-3h-10
		c-0.2,0-0.4-0.1-0.5-0.2s-0.2-0.3-0.2-0.5V26c0-0.2,0.1-0.4,0.2-0.6c0.1-0.1,0.3-0.2,0.5-0.2h9.6c-0.9-1.7-3-2.6-6.3-2.6h-3.4
		c-0.2,0-0.4-0.1-0.5-0.2c-0.1-0.1-0.2-0.3-0.2-0.5v-3.1c0-0.2,0.1-0.4,0.2-0.5S25,18,25.3,18h19.5c0.2,0,0.4,0.1,0.5,0.2
		s0.2,0.3,0.2,0.5v2.4c0,0.2-0.1,0.4-0.2,0.5c-0.1,0.1-0.3,0.2-0.5,0.2h-5.4c0.7,1,1.2,2.1,1.5,3.4h4c0.2,0,0.4,0.1,0.5,0.2
		c0.1,0.2,0.2,0.4,0.2,0.6L45.5,28.4L45.5,28.4z"/>
	<path class="st1" d="M116.1,46.7L96,79.3c-0.4,0.7-1.1,1.2-1.8,1.4v30.9c0,0.7-0.5,1.2-1.2,1.2c-0.7,0-1.2-0.5-1.2-1.2V80.8
		c-0.2-0.1-0.4-0.1-0.6-0.2L75,72v39.7c0,0.7-0.5,1.2-1.2,1.2c-0.7,0-1.2-0.5-1.2-1.2V72.2L55.2,91.1v20.6c0,0.7-0.5,1.2-1.2,1.2
		s-1.2-0.5-1.2-1.2V92.6c-0.7,0.1-1.5,0-2.2-0.3l-16.8-8.3v27.7c0,0.7-0.5,1.2-1.2,1.2s-1.2-0.5-1.2-1.2v-28L13.3,98.8
		c-0.7,0.6-1.5,0.8-2.3,0.8c-1,0-2.1-0.4-2.8-1.3c-1.3-1.5-1.1-3.8,0.5-5.1L29.3,76c1.1-0.9,2.6-1.1,3.9-0.5l18.2,9l18.8-20.3
		c1.1-1.2,2.9-1.5,4.3-0.7l17.1,9.1L110,42.9c1.1-1.7,3.3-2.2,5-1.2C116.6,42.8,117.2,45,116.1,46.7"/>
</g>
</svg>
