<?xml version="1.0" encoding="utf-8"?>
<!-- Generator: Adobe Illustrator 24.0.1, SVG Export Plug-In . SVG Version: 6.00 Build 0)  -->
<svg version="1.1" id="Layer_1" xmlns="http://www.w3.org/2000/svg" xmlns:xlink="http://www.w3.org/1999/xlink" x="0px" y="0px"
	 viewBox="0 0 120 120" style="enable-background:new 0 0 120 120;" xml:space="preserve">
<style type="text/css">
	.st0{fill:#1E7AE1;}
	.st1{fill:#00397B;}
</style>
<g>
	<g>
		<g>
			<path class="st0" d="M84.3,91.7c-0.2-1.5,0.6-11.1-0.5-14.8l-5.2,2.3c0.7,2.6-0.1,11.6,0.1,12.9l-7.3,0.4l10,12.6l9.3-13.9
				L84.3,91.7z"/>
			<path class="st0" d="M66.1,56.8c1.5,0.9,2.9,2.5,4,3.8l5.3-2.3C73.8,56,71.5,53.5,69,52c-5.2-3.2-11.4-3.5-18.4-0.8
				c-11.4,4.4-12.5,13.9-11.5,22.9l5.4-2.4c-0.6-7.4,1-12.4,8.1-15.2C58,54.5,62.4,54.5,66.1,56.8z"/>
			<path class="st0" d="M8.8,74.9l-5.3,1.8c0.1,0.2,1.7,5.2,4.5,11l5.2-2.3C10.6,80.1,8.9,74.9,8.8,74.9z"/>
			<path class="st0" d="M40.8,111.6C40.8,111.6,40.8,111.6,40.8,111.6c-2.9,1.3-5.7,1.3-8.6,0c-3-1.4-6.2-4.1-9.2-8.1l-5.3,2.3
				c3.9,5.4,7.9,8.9,12.1,10.8c4.4,2,8.8,1.8,13.1-0.1h0c10.2-4.5,8.9-15,6.9-24.8l-5.3,2.3C46.4,103.3,46.6,109.1,40.8,111.6z"/>
		</g>
	</g>
	<polygon class="st1" points="119.1,50.3 88.3,40.4 94.1,53.5 0.9,94.4 6.5,107.2 99.7,66.4 105.5,79.6 	"/>
	<rect x="86" y="41.4" transform="matrix(0.9158 -0.4015 0.4015 0.9158 -11.5719 38.8265)" class="st0" width="1.6" height="11.3"/>
	
		<rect x="98.8" y="70.5" transform="matrix(0.9161 -0.4009 0.4009 0.9161 -22.1664 46.3141)" class="st0" width="1.6" height="11.3"/>
	
		<rect x="82.6" y="43.1" transform="matrix(0.9162 -0.4008 0.4008 0.9162 -12.5896 37.3179)" class="st0" width="0.5" height="11.3"/>
	
		<rect x="95.4" y="72.2" transform="matrix(0.9165 -0.3999 0.3999 0.9165 -23.1578 44.7497)" class="st0" width="0.5" height="11.3"/>
</g>
</svg>
