<?xml version="1.0" encoding="utf-8"?>
<!-- Generator: Adobe Illustrator 21.0.0, SVG Export Plug-In . SVG Version: 6.00 Build 0)  -->
<svg version="1.1" id="Layer_1" xmlns="http://www.w3.org/2000/svg" xmlns:xlink="http://www.w3.org/1999/xlink" x="0px" y="0px"
	 viewBox="0 0 200 200" style="enable-background:new 0 0 200 200;" xml:space="preserve">
<style type="text/css">
	.st0{fill:#00A99D;}
</style>
<path class="st0" d="M193.1,5.5c-1.2-0.7-2.6-0.6-3.7,0l-68,40.2c-1.8,1-2.3,3.3-1.3,5.1c1,1.8,3.3,2.3,5.1,1.3L174,23.3l-90.9,94.3
	l-45.2-13.8l59-34.9c1.8-1,2.3-3.3,1.3-5.1c-1-1.8-3.3-2.3-5.1-1.3l-66.2,39.2c-1.3,0.7-2,2.2-1.8,3.6s1.2,2.7,2.6,3.1l54,16.5
	l23.8,43.3c0,0,0.1,0.1,0.1,0.1c0.4,0.7,1,1.2,1.7,1.5c0.5,0.2,1,0.3,1.4,0.3c1,0,1.9-0.4,2.6-1.1l27.4-26.8l51.5,15.8
	c0.4,0.1,0.7,0.2,1.1,0.2c0.8,0,1.6-0.2,2.2-0.7c0.9-0.7,1.5-1.8,1.5-3V8.7C195,7.4,194.3,6.1,193.1,5.5z M105.7,127.2
	c-0.4,0.6-0.7,1.4-0.7,2.1V152l-16.3-29.6l72-74.7L105.7,127.2z M112.4,157.6v-23.3l18.2,5.6L112.4,157.6z M187.6,149.5l-72.9-22.3
	L187.6,22V149.5z"/>
<path class="st0" d="M66,134c-1.4-1.4-3.8-1.4-5.2,0l-34.6,34.6c-1.4,1.4-1.4,3.8,0,5.2c0.7,0.7,1.7,1.1,2.6,1.1s1.9-0.4,2.6-1.1
	L66,139.2C67.5,137.8,67.5,135.4,66,134z"/>
<path class="st0" d="M19.9,180.1c-1.4-1.4-3.8-1.4-5.2,0l-8.5,8.5c-1.4,1.4-1.4,3.8,0,5.2c0.7,0.7,1.7,1.1,2.6,1.1s1.9-0.4,2.6-1.1
	l8.5-8.5C21.3,183.9,21.3,181.6,19.9,180.1z"/>
<path class="st0" d="M57.9,188.4c-0.7-0.7-1.6-1.1-2.6-1.1c-1,0-1.9,0.4-2.6,1.1s-1.1,1.6-1.1,2.6c0,1,0.4,1.9,1.1,2.6
	c0.7,0.7,1.6,1.1,2.6,1.1s1.9-0.4,2.6-1.1c0.7-0.7,1.1-1.6,1.1-2.6C59,190.1,58.6,189.1,57.9,188.4z"/>
<path class="st0" d="M85.5,160.8c-1.4-1.4-3.8-1.4-5.2,0l-18.3,18.3c-1.4,1.4-1.4,3.8,0,5.2c0.7,0.7,1.7,1.1,2.6,1.1
	s1.9-0.4,2.6-1.1l18.3-18.3C87,164.6,87,162.3,85.5,160.8z"/>
<path class="st0" d="M148.9,159.4c-1.4-1.4-3.8-1.4-5.2,0l-18.4,18.4c-1.4,1.4-1.4,3.8,0,5.2c0.7,0.7,1.7,1.1,2.6,1.1
	c0.9,0,1.9-0.4,2.6-1.1l18.4-18.4C150.3,163.2,150.3,160.9,148.9,159.4z"/>
<path class="st0" d="M110.2,55.6c-0.7-0.7-1.6-1.1-2.6-1.1c-1,0-1.9,0.4-2.6,1.1c-0.7,0.7-1.1,1.6-1.1,2.6c0,1,0.4,1.9,1.1,2.6
	c0.7,0.7,1.6,1.1,2.6,1.1c1,0,1.9-0.4,2.6-1.1c0.7-0.7,1.1-1.6,1.1-2.6C111.3,57.2,110.9,56.3,110.2,55.6z"/>
</svg>
