<?xml version="1.0" encoding="utf-8"?>
<!-- Generator: Adobe Illustrator 24.0.1, SVG Export Plug-In . SVG Version: 6.00 Build 0)  -->
<svg version="1.1" id="Layer_1" xmlns="http://www.w3.org/2000/svg" xmlns:xlink="http://www.w3.org/1999/xlink" x="0px" y="0px"
	 viewBox="0 0 120 120" style="enable-background:new 0 0 120 120;" xml:space="preserve">
<style type="text/css">
	.st0{fill:#1E7AE1;}
	.st1{fill:#00397B;}
</style>
<path class="st0" d="M38.6,80.7c-9.5,0-17.2-7.7-17.2-17.2s7.7-17.2,17.2-17.2s17.2,7.7,17.2,17.2h-3.2c0-7.7-6.2-13.9-13.9-13.9
	s-13.9,6.2-13.9,13.9s6.2,13.9,13.9,13.9L38.6,80.7L38.6,80.7z"/>
<polygon class="st0" points="60.1,110.1 57,110.1 57,76.8 48.8,76.8 48.8,110.1 45.6,110.1 45.6,73.6 60.1,73.6 "/>
<polygon class="st1" points="78.8,110.1 75.6,110.1 75.6,60 67.5,60 67.5,110.1 64.2,110.1 64.2,56.8 78.8,56.8 "/>
<polygon class="st0" points="97.3,110.1 94.2,110.1 94.2,41.5 86,41.5 86,110.1 82.9,110.1 82.9,38.4 97.3,38.4 "/>
<polygon class="st1" points="116,110.1 112.8,110.1 112.8,27.4 104.7,27.4 104.7,110.1 101.4,110.1 101.4,24.2 116,24.2 "/>
<rect x="45.9" y="114.6" class="st0" width="69.7" height="3.2"/>
<polygon class="st1" points="38.6,88.7 4,88.7 4,38.4 73.1,38.4 73.1,53 70,53 70,41.5 7.2,41.5 7.2,85.4 38.6,85.4 "/>
<path class="st1" d="M44.9,61c0,0.1,0,0.2-0.1,0.3s-0.2,0.1-0.3,0.1h-1.9c-0.2,1.1-0.7,2-1.5,2.7c-0.8,0.7-1.8,1.1-3.2,1.3
	c1.3,1.3,3,3.4,5.2,6.1c0.1,0.1,0.1,0.2,0,0.4C43.3,71.9,43.2,72,43,72h-2.2c-0.1,0-0.2,0-0.3-0.1c-2.3-2.8-4.2-5-5.7-6.5
	c-0.1-0.1-0.1-0.2-0.1-0.3v-1.5c0-0.1,0-0.2,0.1-0.2c0.1-0.1,0.2-0.1,0.3-0.1h1.3c1,0,1.8-0.2,2.4-0.5c0.6-0.3,1-0.8,1.2-1.4h-4.9
	c-0.1,0-0.2,0-0.3-0.1s-0.1-0.2-0.1-0.3v-1.2c0-0.1,0-0.2,0.1-0.3c0.1-0.1,0.2-0.1,0.3-0.1h4.7c-0.4-0.8-1.4-1.3-3-1.3h-1.7
	c-0.1,0-0.2,0-0.3-0.1c-0.1-0.1-0.1-0.2-0.1-0.3v-1.5c0-0.1,0-0.2,0.1-0.3s0.2-0.1,0.3-0.1h9.5c0.1,0,0.2,0,0.3,0.1s0.1,0.2,0.1,0.3
	v1.2c0,0.1,0,0.2-0.1,0.3s-0.2,0.1-0.3,0.1h-2.7c0.3,0.5,0.6,1,0.7,1.6h2c0.1,0,0.2,0,0.3,0.1c0.1,0.1,0.1,0.2,0.1,0.3L44.9,61
	L44.9,61z"/>
</svg>
